<?xml version="1.0" encoding="utf-8"?>
<!-- Generator: Adobe Illustrator 19.2.1, SVG Export Plug-In . SVG Version: 6.00 Build 0)  -->
<svg version="1.1" id="Layer_1" xmlns="http://www.w3.org/2000/svg" xmlns:xlink="http://www.w3.org/1999/xlink" x="0px" y="0px"
	 viewBox="0 0 50.7 66.3" style="enable-background:new 0 0 50.7 66.3;" xml:space="preserve">
<g>
	<g>
		<g>
			<g>
				<g>
					<path d="M47.7,39.4l-2.6,4.7l-2.5-4.7h-2.4c0.4,0.8,3.5,6.6,3.5,6.6s0,3.3,0,3.8h2.5c0-0.5,0-3.8,0-3.8s3.2-5.8,3.7-6.6H47.7z"
						/>
					<path d="M19.4,46.2c0,1.9-0.6,2.3-2.5,2.3c-1.8,0-2.5-0.4-2.5-2.3v-3.1c0-1.8,0.6-2.2,2.5-2.2c1.8,0,2.5,0.4,2.5,2.2V46.2z
						 M20.4,40c-0.7-0.5-1.9-0.8-3.5-0.8c-1.5,0-2.7,0.2-3.5,0.8c-0.9,0.6-1.3,1.5-1.3,3.1v3.3c0,1.5,0.4,2.5,1.3,3.1
						c0.7,0.5,1.9,0.7,3.5,0.7c1.7,0,2.8-0.2,3.5-0.7c0.9-0.5,1.3-1.6,1.3-3.1v-3.3C21.7,41.7,21.3,40.6,20.4,40"/>
					<path d="M8.2,46c0,1.8-1,2.3-1.8,2.3H3.5V41h2.9c0.8,0,1.8,0.5,1.8,2.2V46z M6.4,39.4H1.1v10.5h5.6c2.8,0,3.8-1.1,3.8-4.2v-2.3
						C10.5,40.6,9.4,39.4,6.4,39.4"/>
					<polygon points="25.8,39.4 23.5,39.4 23.5,49.9 30.2,49.9 30.2,48.2 25.8,48.2 					"/>
					<path d="M37.2,44.4c1.9-0.2,2.3-1.1,2.3-2.4c0-1.2-0.5-1.7-1-2.1c-0.4-0.3-1-0.5-2.1-0.5h-4.9v10.5h5c1.5,0,2.2-0.3,2.5-0.5
						c0.5-0.3,1.2-1.1,1.2-2.3C40,45.7,39.5,44.3,37.2,44.4z M36,48.4h-2.1v0V41v0h2.3c0.8,0,1.3,0.6,1.3,1.5c0,1.3-0.6,1.3-2.4,1.4
						c0,0.2,0,0.9,0,1.2c1.6,0,2.9-0.1,2.9,1.6C37.9,47.5,37.4,48.4,36,48.4"/>
				</g>
			</g>
		</g>
	</g>
	<path d="M1.1,1v33.9H50V1H1.1z M12.5,30.6H6.9V5.4h5.6c5.8,0,10.6,5.7,10.6,12.5C23.1,24.9,18.3,30.6,12.5,30.6z M44.3,30.6h-5.6
		c-5.8,0-10.6-5.6-10.6-12.6c0-6.8,4.8-12.5,10.6-12.5h5.6V30.6z"/>
	<g>
		<g>
			<path d="M7.8,62.4H3.4l-0.9,2.5H1.2l3.6-10.2h1.7l3.6,10.2H8.7L7.8,62.4z M3.8,61.3h3.7l-1.3-3.8c-0.2-0.7-0.4-1.1-0.5-1.7h0
				c-0.2,0.5-0.3,0.9-0.5,1.7L3.8,61.3z"/>
			<path d="M13.8,64.1c-0.7-0.7-0.9-1.7-0.9-2.7v-6.7h1.4v7c0,0.5,0.1,1.2,0.6,1.7c0.4,0.4,1,0.6,1.9,0.6c1,0,1.5-0.2,1.9-0.6
				c0.5-0.5,0.6-1.2,0.6-1.7v-7h1.4v6.7c0,1-0.1,2-0.9,2.7c-0.6,0.6-1.5,0.9-3,0.9C15.3,65.1,14.4,64.8,13.8,64.1z"/>
			<path d="M31.2,63.9c-0.7,0.7-1.6,1-3,1h-3.6V54.7h3.6c1.4,0,2.2,0.3,3,1c0.8,0.8,1.3,2.2,1.3,4.1C32.5,61.7,32.1,63.1,31.2,63.9z
				 M30.2,56.4c-0.5-0.5-1.1-0.6-1.9-0.6H26v8h2.2c0.8,0,1.4-0.1,1.9-0.6c0.6-0.6,0.9-1.7,0.9-3.4C31.1,58.1,30.8,57,30.2,56.4z"/>
			<path d="M37.6,64.9h-1.4V54.7h1.4V64.9z"/>
			<path d="M45.7,65.1c-3.4,0-4.3-2-4.3-5.3c0-3.3,0.9-5.3,4.3-5.3c3.4,0,4.3,2,4.3,5.3C50,63.1,49,65.1,45.7,65.1z M45.7,63.9
				c2.3,0,2.9-1.3,2.9-4.1c0-2.8-0.6-4.1-2.9-4.1s-2.9,1.3-2.9,4.1C42.7,62.6,43.4,63.9,45.7,63.9z"/>
		</g>
	</g>
</g>
</svg>
