<?xml version="1.0" encoding="UTF-8" standalone="no"?>
<!-- Created with Inkscape (http://www.inkscape.org/) -->

<svg
   xmlns:dc="http://purl.org/dc/elements/1.1/"
   xmlns:cc="http://creativecommons.org/ns#"
   xmlns:rdf="http://www.w3.org/1999/02/22-rdf-syntax-ns#"
   xmlns:svg="http://www.w3.org/2000/svg"
   xmlns="http://www.w3.org/2000/svg"
   xmlns:sodipodi="http://sodipodi.sourceforge.net/DTD/sodipodi-0.dtd"
   xmlns:inkscape="http://www.inkscape.org/namespaces/inkscape"
   width="2057.51"
   height="520"
   id="svg9313"
   version="1.1"
   inkscape:version="0.48.4 r9939"
   sodipodi:docname="Neues Dokument 6">
  <defs
     id="defs9315" />
  <sodipodi:namedview
     id="base"
     pagecolor="#ffffff"
     bordercolor="#666666"
     borderopacity="1.0"
     inkscape:pageopacity="0.0"
     inkscape:pageshadow="2"
     inkscape:zoom="0.76073412"
     inkscape:cx="1028.755"
     inkscape:cy="260"
     inkscape:document-units="px"
     inkscape:current-layer="layer1"
     showgrid="false"
     fit-margin-top="0"
     fit-margin-left="0"
     fit-margin-right="0"
     fit-margin-bottom="0"
     inkscape:window-width="1680"
     inkscape:window-height="990"
     inkscape:window-x="-4"
     inkscape:window-y="-4"
     inkscape:window-maximized="1" />
  <metadata
     id="metadata9318">
    <rdf:RDF>
      <cc:Work
         rdf:about="">
        <dc:format>image/svg+xml</dc:format>
        <dc:type
           rdf:resource="http://purl.org/dc/dcmitype/StillImage" />
        <dc:title></dc:title>
      </cc:Work>
    </rdf:RDF>
  </metadata>
  <g
     inkscape:label="Ebene 1"
     inkscape:groupmode="layer"
     id="layer1"
     transform="translate(-260.50461,-86.70918)">
    <path
       inkscape:connector-curvature="0"
       d="m 1149.5801,590.84791 -87.7317,0 0,-156.83932 89.2544,0 c 32.2112,0 43.9244,14.05581 43.9244,39.70764 l 0,73.5587 c 0,34.31958 -14.4072,43.57298 -45.4471,43.57298 m 9.7219,-116.66315 -13.9387,-14.29006 -47.6726,0 0,105.30138 47.4384,0 c 9.4876,0 14.1729,-2.92361 14.1729,-13.93867 z m 72.973,116.66315 35.7168,0 0,-156.93302 -35.7168,0 z m 182.0227,0 -3.7482,-10.65898 c -5.2663,6.79364 -15.4614,13.35301 -40.1762,13.35301 l -17.6869,0 c -30.5714,0 -47.3212,-9.24872 -47.3212,-42.75306 l 0,-78.59536 c 0,-40.99609 31.3913,-41.46461 53.1778,-41.46461 l 42.0503,0 c 15.9299,0 29.8685,3.04542 36.7793,6.79363 l 0,20.14665 -80.938,0 c -9.4876,0 -15.3442,2.34264 -15.3442,15.10999 l 0,81.75791 15.11,12.76736 24.949,0 25.1833,-5.62232 0,-36.54509 -33.6168,0 0,-23.07494 68.4049,0 0,88.78581 z m 65.2423,0 35.7242,0 0,-156.93302 -35.7242,0 z m 139.8552,-131.30461 0,131.30461 -35.7251,0 0,-131.30461 -48.3754,0 0,-25.65184 131.7731,0 0,25.65184"
       style="fill:#231f20;fill-opacity:1;fill-rule:nonzero;stroke:none"
       id="path2016"
       sodipodi:nodetypes="cccssscccccssccccccccssssssccssccccccccccccccccccccccc" />
    <g
       id="g2018"
       transform="matrix(117.13168,0,0,-117.13168,1785.0194,590.8526)">
      <path
         inkscape:connector-curvature="0"
         d="m 0,0 -0.116,0.344 -0.534,0 L -0.764,0 l -0.272,0 0.489,1.352 0.363,0 L 0.311,0 0,0 z m -0.364,1.091 -0.018,0.08 -0.007,0 -0.019,-0.08 -0.17,-0.523 0.389,0 -0.175,0.523 z M 0.574,0 l 0,1.339 0.304,0 0,-1.111 0.631,0 0,-0.228"
         style="fill:#231f20;fill-opacity:1;fill-rule:nonzero;stroke:none"
         id="path2020" />
    </g>
    <g
       id="g2022"
       transform="matrix(117.13168,0,0,-117.13168,2250.0322,107.80155)">
      <path
         inkscape:connector-curvature="0"
         d="M 0,0 -0.57,-1.008 -1.121,0 -1.637,0 c 0.096,-0.171 0.772,-1.411 0.772,-1.411 l 0,-0.819 0.554,0 c 0.001,0.111 0,0.815 0,0.815 0,0 0.702,1.243 0.801,1.415 L 0,0 z m -16.9,-4.174 6.2139,0 0,4.2687 -6.2139,0 0,-4.2687 z m 1.441,0.554 -0.707,0 0,3.162 0.707,0 c 0.736,0 1.351,-0.723 1.351,-1.575 0,-0.878 -0.615,-1.587 -1.351,-1.587 m 4.04,0 -0.709,0 c -0.737,0 -1.35,0.709 -1.35,1.587 0,0.852 0.613,1.575 1.35,1.575 l 0.709,0"
         style="fill:#231f20;fill-opacity:1;fill-rule:nonzero;stroke:none"
         id="path2024" />
    </g>
    <g
       id="g2026"
       transform="matrix(117.13168,0,0,-117.13168,1523.9329,277.52536)">
      <path
         inkscape:connector-curvature="0"
         d="m 0,0 c 0,-0.395 -0.141,-0.486 -0.539,-0.486 -0.397,0 -0.539,0.091 -0.539,0.486 l 0,0.668 c 0,0.386 0.142,0.469 0.539,0.469 C -0.141,1.137 0,1.054 0,0.668 z m 0.227,1.326 c -0.156,0.107 -0.421,0.162 -0.766,0.162 -0.337,0 -0.58,-0.045 -0.768,-0.163 -0.196,-0.123 -0.288,-0.33 -0.288,-0.654 l 0,-0.702 c 0,-0.324 0.096,-0.543 0.286,-0.652 0.154,-0.104 0.405,-0.154 0.77,-0.154 0.361,0 0.619,0.051 0.766,0.151 0.191,0.117 0.29,0.341 0.29,0.655 l 0,0.702 c 0,0.308 -0.097,0.528 -0.29,0.655 M -2.435,0.053 c 0,-0.391 -0.214,-0.489 -0.393,-0.489 l -0.632,0 0,1.559 0.632,0 c 0.179,0 0.393,-0.099 0.393,-0.463 z m -0.397,1.397 -1.143,0 0,-2.231 1.223,0 c 0.604,0 0.828,0.24 0.828,0.887 l 0,0.491 c 0,0.614 -0.255,0.853 -0.908,0.853 m 4.243,0 -0.515,0 0,-2.231 1.467,0 0,0.372 -0.952,0 z"
         style="fill:#231f20;fill-opacity:1;fill-rule:nonzero;stroke:none"
         id="path2028"
         sodipodi:nodetypes="ssssssscscsscscsscssccssscccssscccccccc" />
    </g>
    <g
       id="g2030"
       transform="matrix(117.13168,0,0,-117.13168,1980.7465,230.67268)">
      <path
         inkscape:connector-curvature="0"
         d="M 0,0 C 0.405,0.036 0.492,0.23 0.492,0.508 0.492,0.754 0.387,0.879 0.27,0.949 0.172,1.009 0.056,1.05 -0.185,1.05 l -1.07,0 0,-2.231 1.083,0 c 0.333,0 0.471,0.065 0.534,0.108 0.111,0.071 0.254,0.23 0.254,0.485 C 0.616,-0.289 0.509,0.011 0,0 m -0.274,-0.856 -0.464,0 0,1.586 0.506,0 c 0.172,0 0.279,-0.133 0.279,-0.315 0,-0.28 -0.138,-0.286 -0.534,-0.301 l 0,-0.258 c 0.353,0 0.636,0.022 0.636,-0.335 0,-0.18 -0.116,-0.377 -0.423,-0.377"
         style="fill:#231f20;fill-opacity:1;fill-rule:nonzero;stroke:none"
         id="path2032"
         sodipodi:nodetypes="cscsccscsccccssccsc" />
    </g>
  </g>
</svg>
