<?xml version="1.0" encoding="utf-8"?>
<!-- Generator: Adobe Illustrator 19.2.1, SVG Export Plug-In . SVG Version: 6.00 Build 0)  -->
<svg version="1.1" xmlns="http://www.w3.org/2000/svg" xmlns:xlink="http://www.w3.org/1999/xlink" x="0px" y="0px"
	 viewBox="0 0 231.3 276.5" style="enable-background:new 0 0 231.3 276.5;" xml:space="preserve">
<style type="text/css">
	.st0{opacity:0.12;}
	.st1{fill:#DBBD8E;stroke:#B29572;stroke-miterlimit:10;}
	.st2{fill:#D3B58D;}
	.st3{fill:#3C0500;}
	.st4{fill:#FFFFFF;}
	.st5{fill:#A6A8AB;}
	.st6{opacity:0.11;fill:#2D2D2D;}
	.st7{fill:#C55640;}
	.st8{fill:#923E2C;}
	.st9{fill:#9E8F72;}
	.st10{fill:#DBBD8E;}
	.st11{fill:#424242;}
	.st12{fill:#303030;}
	.st13{opacity:0.3;fill:#B3DB52;}
	.st14{fill:#B3DB52;}
	.st15{fill:#E8DAC4;}
	.st16{fill:#231F20;}
	.st17{opacity:0.3;fill:url(#SVGID_1_);enable-background:new    ;}
	.st18{opacity:0.3;fill:url(#SVGID_2_);enable-background:new    ;}
	.st19{opacity:0.3;fill:url(#SVGID_3_);enable-background:new    ;}
	.st20{opacity:0.3;fill:url(#SVGID_4_);enable-background:new    ;}
</style>
<g id="Layer_4">
	<circle class="st0" cx="116.6" cy="122.9" r="105"/>
</g>
<g id="head">
	<g>
		<g>
			<path class="st1" d="M114.8,39.2c51,0,84.3,30.6,84.3,76.3s-33.3,89.3-84.3,89.3S33.9,167.8,33.9,122S63.7,39.2,114.8,39.2z"/>
			<path class="st2" d="M114.8,40.2c-38.9,8.1-68.1,42.7-68.1,88.4s43.8,74.7,68.1,75.2c-51,0-79.8-36.1-79.8-81.8
				S63.7,40.2,114.8,40.2z"/>
			<g>
				<g>
					<path class="st3" d="M85,148c0,0,23.6,6.3,49.3,0.8s28.4,0.3,28.3,4.4c-0.1,7.3-7.9,13.6-25.7,15.5
						c-17.7,1.9-63.8,5.1-66.6-13.8C68.9,145.8,81,147.2,85,148z"/>
					<g>
						<path class="st4" d="M88.2,148.8c0,0-1.1,7,6.8,7.5s6.6-5.6,6.6-5.6L88.2,148.8z"/>
						<path class="st4" d="M108,150.6c0,0-1.1,7,6.8,7.5s6.7-7.4,6.7-7.4L108,150.6z"/>
						<path class="st4" d="M127.8,149.5c0,0-1.1,7,6.8,7.5c7.9,0.5,6.8-9.5,6.8-9.5L127.8,149.5z"/>
						<path class="st4" d="M134.3,170.7c0,0,1.1-7-6.8-7.5s-6.7,7.4-6.7,7.4L134.3,170.7z"/>
						<path class="st5" d="M115.8,156.6c-4.5-0.3-6.1-2.6-6.6-4.7c4.4,0.8,12.4-0.2,12.4-0.2s0-0.5-0.1-1l-12.5-0.1h-1
							c0,0-1.1,7,6.8,7.5c3.7,0.2,5.4-1.4,6.1-3.1C119.9,156,118.3,156.8,115.8,156.6z"/>
						<path class="st5" d="M101.7,151.8c0.1-0.7-0.1-1-0.1-1c-3.3-0.2-12.3-1.7-12.3-1.7l-1-0.1c0,0-1.1,7,6.8,7.5
							c4.2,0.3,5.8-1.3,6.4-2.9c-1,0.9-2.6,1.5-5.3,1.4c-4.6-0.3-6.1-2.8-6.6-4.8l0,0C93.6,151.4,101.7,151.8,101.7,151.8z"/>
						<path class="st5" d="M135.6,155.5c-4.5-0.3-6.1-2.7-6.6-4.7c6.7-0.6,12.5-2.4,12.5-2.4s0-0.5-0.1-1l-12.6,2l-1,0.1
							c0,0-1.1,7,6.8,7.5c3.2,0.2,4.9-1.4,5.9-3.3C139.5,154.8,137.9,155.6,135.6,155.5z"/>
						<path class="st4" d="M110.1,170.2c0,0,1.1-7-6.8-7.5s-6.9,7.5-6.9,7.5H110.1z"/>
					</g>
					<g>
						<path class="st5" d="M123.5,168.9c-0.6-0.1-2-2.1-1.1-4.2c-2.1,2.2-1.6,5.8-1.6,5.8l13.5,0.1c0,0,0.3-1.4-0.2-2.7
							C134.1,168,128.3,169.9,123.5,168.9z"/>
						<path class="st5" d="M98.5,168.5c-0.6-0.1-1.4-2.1-0.4-4.2c-2.1,2.2-1.7,5.9-1.7,5.9H110c0,0,0.1-0.6,0-1.5
							C110.1,168.7,105.2,170,98.5,168.5z"/>
					</g>
					<path class="st6" d="M159.7,168.1c-5.3,3.4-12.7,5.7-22.2,6.7c-7.3,0.8-18.2,1.7-29.2,1.5c-11.1-0.2-20.2-1.4-27-3.6
						c-4.5-1.5-8.2-3.4-11-5.8c-3.5-3-5.6-6.8-6.2-11.1c-0.1-0.4-0.1-0.7-0.1-1.1c-0.1,1-0.1,2.2,0.1,3.5c0.6,4.3,2.5,8.7,6,11.7
						c2.8,2.4,7.3,5.1,11.9,6.6c6.8,2.2,15.9,3.5,27,3.6c11,0.2,21.9-0.7,29.2-1.5c9.4-1,17.2-4.4,22.4-7.9c5.7-3.7,8-9.2,8.1-15
						c0-0.5,0-0.9,0-1.4C168.3,159.8,165.1,164.6,159.7,168.1z"/>
					<path class="st7" d="M164.9,144.3c-2.9-2.5-7-3.8-12.7-3.8c-5-0.1-11.3,0.7-19.2,2.4c-7.1,1.5-14.8,2.3-22.8,2.1
						c-13.6-0.2-23.5-2.8-23.6-2.8h-0.1h-0.1c-1-0.2-3.7-0.8-6.8-0.8c-5.7-0.1-9.9,1.4-12.7,4.5c-1.6,1.8-3.4,5.1-2.6,10.1
						c0.6,4.3,2.7,8,6.2,11.1c2.8,2.4,6.4,4.4,11,5.8c6.8,2.2,15.9,3.5,27,3.6c11,0.2,21.9-0.7,29.2-1.5c9.4-1,16.9-3.3,22.2-6.7
						c5.7-3.7,8.9-9,9-14.8C168.8,148.8,166.7,145.8,164.9,144.3z M136.9,168.8c-17.7,1.9-63.8,5.1-66.6-13.8
						c-1.4-9.3,10.8-7.7,14.7-6.9c0,0,23.6,6.3,49.3,0.8s28.4,0.3,28.3,4.4C162.5,160.5,154.7,166.9,136.9,168.8z"/>
					<g>
						<path class="st8" d="M134.2,146.8c-25.7,5.5-49.3-0.8-49.3-0.8c-3.9-0.9-15.7-2.3-14.7,6.5c0.9-6.6,11.2-5.3,14.7-4.5
							c0,0,23.6,6.3,49.3,0.8c23.3-5,27.7-0.7,28.3,3.2c0-0.3,0.1-0.6,0.1-0.8C162.7,147.1,159.9,141.2,134.2,146.8z"/>
						<path class="st8" d="M159.7,166.1c-5.3,3.4-12.7,5.7-22.2,6.7c-7.3,0.8-18.2,1.6-29.2,1.5c-11.1-0.2-20.2-1.4-27-3.6
							c-4.5-1.5-8.2-3.4-11-5.8c-3.5-3-5.6-6.8-6.2-11.1c-0.1-0.5-0.1-0.9-0.1-1.4c-0.1,1-0.1,2.2,0.1,3.4c0.6,4.3,2.7,8,6.2,11.1
							c2.8,2.4,6.4,4.4,11,5.8c6.8,2.2,15.9,3.5,27,3.6c11,0.2,21.9-0.7,29.2-1.5c9.4-1,16.9-3.3,22.2-6.7c5.7-3.7,8.9-9,9-14.8
							c0-0.4,0-0.7,0-1.1C168.3,157.8,165.1,162.6,159.7,166.1z"/>
					</g>
					<g>
						<path class="st8" d="M75.7,142.8c0,0,0.2,0.2,0.4,0.5c0.2,0.3,0.5,0.8,0.7,1.2c0.2,0.5,0.4,0.9,0.6,1.3
							c0.1,0.4,0.2,0.6,0.2,0.6s-0.2-0.2-0.4-0.5c-0.2-0.3-0.5-0.8-0.7-1.2c-0.2-0.5-0.4-0.9-0.6-1.3
							C75.8,143.1,75.7,142.8,75.7,142.8z"/>
						<path class="st8" d="M90.7,144.4c0,0,0.1,0.3,0.1,0.7s0.1,1,0.1,1.5s0,1.1-0.1,1.5c0,0.4-0.1,0.7-0.1,0.7s-0.1-0.3-0.1-0.7
							c0-0.4-0.1-1-0.1-1.5s0-1.1,0.1-1.5C90.6,144.8,90.7,144.4,90.7,144.4z"/>
						<path class="st8" d="M116.4,145.9c0,0,0.1,0.2,0.1,0.6s0.1,0.8,0.1,1.3s0,1-0.1,1.3c0,0.4-0.1,0.6-0.1,0.6s-0.1-0.2-0.1-0.6
							s-0.1-0.8-0.1-1.3s0-1,0.1-1.3C116.3,146.1,116.4,145.9,116.4,145.9z"/>
						<path class="st8" d="M140.9,142.8c0,0,0,0.3,0,0.6c0,0.4-0.1,0.9-0.2,1.4c-0.1,0.5-0.2,1-0.3,1.4c-0.1,0.4-0.2,0.6-0.2,0.6
							s0-0.3,0-0.6c0-0.4,0.1-0.9,0.2-1.4c0.1-0.5,0.2-1,0.3-1.4C140.8,143.1,140.9,142.8,140.9,142.8z"/>
						<path class="st8" d="M161.1,143.3c0,0-0.1,0.2-0.3,0.6c-0.2,0.4-0.5,0.8-0.8,1.2s-0.6,0.9-0.9,1.2c-0.3,0.3-0.4,0.5-0.4,0.5
							s0.1-0.3,0.3-0.6c0.2-0.4,0.5-0.8,0.8-1.3c0.3-0.4,0.6-0.9,0.9-1.2C160.9,143.5,161.1,143.3,161.1,143.3z"/>
					</g>
				</g>
			</g>
			<g>
				<g>
					<path class="st9" d="M67.7,255.6c-22-30.1-19.1-68-18-103.2v-0.1c0,0,0-0.1,0-0.2c0-0.1-0.1-0.1-0.1,0c0,0,0,0,0,0.1
						c-0.3-0.2-0.7-0.2-1-0.2c-0.9-0.1-1.9-0.2-2.8-0.3c-1.6-0.2-3.4-0.3-5-0.7c-0.1,0-0.2,0.1-0.1,0.2c-2.1,9.5-3.3,19.3-4.6,28.9
						c-1.3,10.2-2.2,20.5-2.1,30.8c0.1,21.9,5.1,44.6,16.8,63.4c0,0.1,0.1,0.1,0.2,0.1c0.5-0.2,0.9-0.4,1.4-0.6
						c0.4-0.2,0.8-0.3,1.2-0.5c0.1,0.1,0.3,0,0.3-0.1l0,0l0,0c0.1-0.1,0.1-0.2,0-0.2c-0.1-0.7-0.5-1.4-0.8-2
						c-0.4-0.9-0.8-1.9-0.9-2.9c0.4-0.1,0.7-0.4,1.1-0.6c0.3-0.2,0.7-0.3,1-0.4c0.2,0.8,0.7,1.4,1.2,2c0.8,0.9,1.7,1.7,2.4,2.7
						c-0.1,0.2,0.1,0.4,0.3,0.3c0,0,0.1,0,0.1-0.1c-0.1,0.1-0.1,0.1,0.1,0c0.1-0.1,0.3-0.1,0.4-0.1c0.3-0.1,0.7-0.3,1-0.5
						c0.4-0.2,0.9-0.4,1.2-0.7c0.1,0,0.2-0.1,0.1-0.2c-0.6-2.2-2.4-4-3.5-5.9c0.3-0.1,0.5-0.4,0.7-0.5s0.5-0.2,0.7-0.4
						c0.4,0.9,1.3,1.5,2,2.1c0.9,0.7,2,1.7,3.1,2.2c0.1,0,0.2,0,0.2,0c0.5-0.4,0.8-1.1,1.2-1.6c0.2-0.3,0.4-0.5,0.6-0.8
						c0,0,0.1-0.1,0.1-0.2c0.2,0,0.3-0.1,0.2-0.3V265c0,0,0,0-0.1,0c-1-1.2-2.1-2.2-3.1-3.3c-0.7-0.8-1.3-1.8-1.7-2.8
						c-0.4-1.2,0.2-2,0.9-2.8c0.6,1.4,2.1,2.2,3.4,2.8c0,0,0,0,0,0.1c0,0.2,0.2,0.2,0.3,0.1c0.5-0.4,0.7-1,0.9-1.5
						c0.3-0.6,0.7-1.1,1-1.7C67.7,255.7,67.8,255.7,67.7,255.6z M58.1,271.6C58.1,271.6,58,271.6,58.1,271.6
						C58,271.6,58.1,271.6,58.1,271.6L58.1,271.6z M66.2,257c-0.3,0.5-0.6,1.1-0.8,1.7c-0.5-0.5-1-0.9-1.5-1.4
						c-0.6-0.5-1.1-1.2-1.7-1.6c-0.1-0.1-0.3,0-0.3,0.1c-4.6,1.5,1,7.7,3.5,9.3c-0.2,0.1-0.3,0.3-0.5,0.5c-0.4,0.5-1,1.2-1.2,1.8
						c-0.6-0.7-1.5-1.2-2.2-1.8c-1-0.7-1.8-1.5-2.8-2.2c0-0.1,0-0.1-0.1-0.1c-0.3-0.1-0.8,0.1-1,0.2c-0.3,0.1-0.7,0.4-0.7,0.8v0.1
						c0,0.9,0.8,1.9,1.2,2.7c0.7,1.1,1.3,2.3,2.2,3.2c-0.6,0-1.3,0.4-1.8,0.6c-0.2,0.1-0.5,0.2-0.7,0.4c-0.3-0.8-0.7-1.4-1.2-2
						c-0.7-0.9-1.4-1.9-2.3-2.7c-0.1-0.1-0.2-0.1-0.3,0c-0.8-0.2-1.9,0.5-2.3,1.1c0,0,0,0,0,0.1l0,0l0,0l0,0
						c-0.3,0.9,0.1,1.9,0.4,2.7c0.3,0.8,0.6,1.6,1.1,2.3c-0.4,0.1-0.8,0.2-1.1,0.4c-0.4,0.2-0.9,0.4-1.2,0.7
						c-5.3-10.5-9.9-21-12.7-32.5c-2.5-10.3-3.5-21-3.5-31.6c0-10,0.9-19.9,2.1-29.8c1.2-9.6,3.1-19.2,4-28.9
						c0.3,0.2,8.5,1.1,8.8,0.9c-1.8,18.1-2.3,37-0.3,55.1c1.9,17,6.6,35.3,18,48.5C66.9,256,66.5,256.5,66.2,257z"/>
					<path class="st2" d="M49.7,151.8c-0.4-0.1-8.4-1.2-8.9-1c-0.8,9.7-2.7,19.5-3.9,29.2c-1.2,9.9-2.2,19.9-2.1,29.8
						c0,10.6,1,21.2,3.5,31.6c2.8,11.5,7.4,22,12.7,32.5c0.3-0.3,0.7-0.5,1.2-0.7c0.3-0.1,0.7-0.3,1.1-0.4c-0.5-0.7-0.8-1.6-1.1-2.3
						c-0.3-0.8-0.7-1.8-0.4-2.7l0,0l0,0l0,0c0,0,0,0,0-0.1c0.5-0.6,1.5-1.3,2.3-1.1c0.1-0.1,0.2-0.1,0.3,0c0.8,0.8,1.5,1.8,2.3,2.7
						c0.5,0.6,0.9,1.3,1.2,2c0.2-0.2,0.5-0.3,0.7-0.4c0.5-0.2,1.2-0.6,1.8-0.6c-0.9-0.9-1.6-2.1-2.2-3.2c-0.5-0.7-1.2-1.7-1.2-2.7
						v-0.1c0-0.4,0.4-0.7,0.7-0.8s0.7-0.3,1-0.2c0.1,0,0.1,0.1,0.1,0.1c1,0.7,1.8,1.5,2.8,2.2c0.7,0.5,1.7,1,2.2,1.8
						c0.2-0.7,0.8-1.3,1.2-1.8c0.1-0.2,0.3-0.4,0.5-0.5c-2.4-1.6-8-7.8-3.5-9.3c0-0.1,0.2-0.2,0.3-0.1c0.6,0.5,1.1,1.1,1.7,1.6
						c0.5,0.4,1,0.9,1.5,1.4c0.1-0.6,0.5-1.2,0.8-1.7c0.3-0.5,0.6-1,1.1-1.4c-11.4-13.2-16.1-31.5-18-48.5
						C47.3,189,47.9,169.9,49.7,151.8z"/>
				</g>
				<g>
					<path class="st9" d="M161.9,255.6c0.3,0.6,0.7,1.1,1,1.7c0.3,0.5,0.5,1.1,0.9,1.5c0.1,0.1,0.3,0,0.3-0.1c0,0,0,0,0-0.1
						c1.3-0.7,2.7-1.4,3.4-2.8c0.8,0.8,1.4,1.6,0.9,2.8c-0.4,1-1,2-1.7,2.8c-1,1.2-2.2,2.2-3.1,3.3c0,0,0,0-0.1,0v0.1
						c-0.1,0.1,0,0.3,0.2,0.3c0,0.1,0.1,0.1,0.1,0.2c0.2,0.3,0.4,0.5,0.6,0.8c0.4,0.5,0.7,1.2,1.2,1.6c0,0.1,0.1,0.1,0.2,0.1
						c1.1-0.5,2.1-1.5,3.1-2.2c0.7-0.6,1.7-1.2,2-2.1c0.2,0.2,0.5,0.3,0.7,0.4c0.3,0.1,0.5,0.4,0.7,0.5c-1.1,1.9-2.9,3.8-3.5,5.9
						c0,0.1,0,0.2,0.1,0.2c0.3,0.3,0.8,0.6,1.2,0.7c0.3,0.2,0.6,0.3,1,0.5c0.1,0.1,0.3,0.1,0.4,0.1c0.2,0.1,0.1,0.1,0.1,0
						c0,0,0.1,0,0.1,0.1c0.2,0.1,0.3-0.2,0.3-0.3c0.7-0.9,1.7-1.8,2.4-2.7c0.5-0.6,1-1.2,1.2-2c0.3,0.1,0.7,0.2,1,0.4
						c0.3,0.2,0.7,0.5,1.1,0.6c-0.1,1-0.5,2-0.9,2.9c-0.3,0.6-0.7,1.3-0.8,2c-0.1,0-0.1,0.1,0,0.2l0,0l0,0c0,0.1,0.2,0.2,0.3,0.1
						c0.4,0.2,0.8,0.4,1.2,0.5c0.5,0.2,0.9,0.4,1.4,0.6c0.1,0,0.1,0,0.2-0.1c11.7-18.7,16.7-41.5,16.8-63.4
						c0-10.3-0.8-20.6-2.1-30.8c-1.2-9.7-2.5-19.4-4.6-28.9c0.1-0.1,0-0.3-0.1-0.2c-1.6,0.5-3.4,0.5-5,0.7c-0.9,0.1-1.9,0.2-2.8,0.3
						c-0.3,0-0.8,0-1,0.2c0,0,0,0,0-0.1s-0.1-0.1-0.1,0s0,0.1,0,0.2v0.1c1.1,35.2,4,73.2-18,103.2
						C161.7,255.5,161.8,255.6,161.9,255.6z M171.5,271.5L171.5,271.5L171.5,271.5L171.5,271.5z M162.2,255.5
						c11.4-13.2,16.1-31.5,18-48.5c2-18.1,1.5-37-0.3-55.1c0.4,0.2,8.5-0.7,8.8-0.9c0.8,9.7,2.7,19.3,4,28.9
						c1.2,9.9,2.2,19.9,2.1,29.8c0,10.6-1,21.2-3.5,31.6c-2.8,11.5-7.4,22-12.7,32.5c-0.3-0.3-0.7-0.5-1.2-0.7
						c-0.3-0.1-0.7-0.3-1.1-0.4c0.5-0.7,0.8-1.6,1.1-2.3c0.3-0.8,0.7-1.8,0.4-2.7l0,0l0,0l0,0c0,0,0,0,0-0.1
						c-0.5-0.6-1.5-1.3-2.3-1.1c-0.1-0.1-0.2-0.1-0.3,0c-0.8,0.8-1.5,1.8-2.3,2.7c-0.5,0.6-0.9,1.3-1.2,2c-0.2-0.2-0.5-0.3-0.7-0.4
						c-0.5-0.2-1.2-0.6-1.8-0.6c0.9-0.9,1.6-2.1,2.2-3.2c0.5-0.7,1.2-1.7,1.2-2.7v-0.1c0-0.4-0.4-0.7-0.7-0.8s-0.7-0.3-1-0.2
						c-0.1,0-0.1,0.1-0.1,0.1c-1,0.7-1.8,1.5-2.8,2.2c-0.7,0.5-1.7,1-2.3,1.8c-0.2-0.7-0.7-1.3-1.2-1.8c-0.1-0.2-0.3-0.4-0.5-0.5
						c2.4-1.6,8-7.8,3.5-9.3c0-0.1-0.2-0.2-0.3-0.1c-0.6,0.5-1.1,1.1-1.7,1.6c-0.5,0.4-1,0.9-1.5,1.4c-0.1-0.6-0.5-1.2-0.8-1.7
						C163,256.3,162.7,255.8,162.2,255.5z"/>
					<path class="st10" d="M179.9,151.8c0.4-0.1,8.4-1.3,8.9-1c0.8,9.7,2.7,19.5,3.9,29.2c1.2,9.9,2.2,19.9,2.1,29.8
						c0,10.6-1,21.2-3.5,31.6c-2.8,11.5-7.4,22-12.7,32.5c-0.3-0.3-0.7-0.5-1.2-0.7c-0.3-0.1-0.7-0.3-1.1-0.4
						c0.5-0.7,0.8-1.6,1.1-2.3c0.3-0.8,0.7-1.8,0.4-2.7l0,0l0,0l0,0c0,0,0,0,0-0.1c-0.5-0.6-1.5-1.3-2.3-1.1c-0.1-0.1-0.2-0.1-0.3,0
						c-0.8,0.8-1.5,1.8-2.3,2.7c-0.5,0.6-0.9,1.3-1.2,2c-0.2-0.2-0.5-0.3-0.7-0.4c-0.5-0.2-1.2-0.6-1.8-0.6c0.9-0.9,1.6-2.1,2.2-3.2
						c0.5-0.7,1.2-1.7,1.2-2.7v-0.1c0-0.4-0.4-0.7-0.7-0.8c-0.3-0.1-0.7-0.3-1-0.2c-0.1,0-0.1,0.1-0.1,0.1c-1,0.7-1.8,1.5-2.8,2.2
						c-0.7,0.5-1.7,1-2.3,1.8c-0.2-0.7-0.7-1.3-1.2-1.8c-0.1-0.2-0.3-0.4-0.5-0.5c2.4-1.6,8-7.8,3.5-9.3c0-0.1-0.2-0.2-0.3-0.1
						c-0.6,0.5-1.1,1.1-1.7,1.6c-0.5,0.4-1,0.9-1.5,1.4c-0.1-0.6-0.5-1.2-0.8-1.7s-0.6-1-1.1-1.4c11.4-13.2,16.1-31.5,18-48.5
						C182.2,188.8,181.6,169.8,179.9,151.8z"/>
				</g>
			</g>
		</g>
		
			<ellipse transform="matrix(0.3298 -0.9441 0.9441 0.3298 41.5846 170.8354)" class="st2" cx="141.1" cy="56.1" rx="11.1" ry="19.9"/>
	</g>
</g>
<g id="Layer_2">
	<g id="muff_3_">
		<g id="muff">
			<path class="st11" d="M34.9,138.4c2.2,9.5-11.7,9.5-20,10.1c-5.1,0.4-8.2-4.3-10.9-14.4s0.5-38.9,4.1-51.8
				c4-14.4,5.9-16.3,13.7-16.7c12.2-0.7,22.9,9.9,18.8,18.9C36,94.8,31.2,122,34.9,138.4z"/>
		</g>
		<g id="muff_2_">
			<path class="st12" d="M34.9,138.4c2.2,9.5-11.7,9.5-20,10.1c10.4-2.6,15.7-2.1,13-12.1c-2.7-10,0.5-38.9,4.1-51.8
				c4-14.4-4.2-16.7-10.3-19c12.2-0.7,22.9,9.9,18.8,18.9C36,94.8,31.2,122,34.9,138.4z"/>
		</g>
	</g>
	<g id="muff_1_">
		<g id="muff_5_">
			<path class="st11" d="M197.8,134.1c-2.5,9.5,11.4,9.8,19.8,10.7c5.1,0.5,8.3-4.1,11.3-14.1s0.5-38.9-2.7-51.9
				c-3.6-14.5-5.5-16.4-13.2-17.1c-12.2-1-23.1,9.3-19.3,18.4C197.9,90.5,202,117.8,197.8,134.1z"/>
		</g>
		<g id="muff_4_">
			<path class="st12" d="M197.8,134.1c-2.5,9.5,11.4,9.8,19.8,10.7c-10.4-2.9-15.7-2.5-12.7-12.4s0.5-38.9-2.7-51.9
				c-3.6-14.5,4.7-16.5,10.7-18.7c-12.2-1-23.1,9.3-19.3,18.4C197.9,90.5,202,117.8,197.8,134.1z"/>
		</g>
	</g>
	<path class="st11" d="M20.3,68c0,0,4.6-65,101.9-65c80.2,0,90.2,70.6,90.2,70.6h-4.9c0,0-4.9-65.6-88.3-65.6
		C36.5,8,25.5,68.5,25.5,68.5L20.3,68z"/>
	<g>
		<circle class="st13" cx="208.8" cy="137.4" r="3.1"/>
		<circle class="st14" cx="208.8" cy="137.4" r="1.3"/>
	</g>
</g>
<g id="Layer_3">
	<g>
		<g>
			<g>
				<g>
					<path class="st15" d="M164.6,99.1c0,0-5.5,7.7-11.5,0.9c0,0-0.1,7.2,5.8,7.2C164.7,107.2,164.6,99.1,164.6,99.1z"/>
					<ellipse class="st16" cx="158.8" cy="99.2" rx="5.8" ry="5.1"/>
					<ellipse class="st4" cx="156.6" cy="96.8" rx="1.8" ry="1.6"/>
					<ellipse class="st4" cx="154.5" cy="99.2" rx="0.8" ry="0.7"/>
					<path class="st9" d="M150.8,104.3c0,0,0.1,0.4,0.4,1.2c0.2,0.4,0.3,0.8,0.6,1.3c0.2,0.5,0.6,1.1,0.9,1.6
						c0.4,0.6,0.8,1.2,1.4,1.8c0.5,0.6,1.1,1.2,1.8,1.7c0.6,0.6,1.4,1.1,2.1,1.6c0.8,0.5,1.6,0.9,2.4,1.3c0.9,0.3,1.7,0.7,2.6,0.9
						c0.9,0.2,1.7,0.5,2.6,0.6c0.8,0.1,1.7,0.2,2.4,0.3c0.8,0,1.5,0,2.2,0.1c0.3,0,0.7,0,1,0s0.6-0.1,0.9-0.1c0.5-0.1,1-0.1,1.4-0.1
						c0.8-0.1,1.2-0.1,1.2-0.1s-0.5,0-1.2-0.1c-0.4,0-0.9-0.1-1.4-0.1s-1.2-0.1-1.8-0.2c-0.7-0.1-1.4-0.2-2.1-0.3
						c-0.7-0.2-1.5-0.3-2.3-0.5c-0.8-0.1-1.6-0.5-2.4-0.7c-0.8-0.2-1.6-0.6-2.4-0.9c-0.8-0.4-1.6-0.8-2.3-1.2
						c-0.7-0.5-1.5-0.9-2.1-1.4c-0.7-0.5-1.2-1-1.8-1.5c-0.5-0.5-1-1-1.5-1.5c-0.4-0.5-0.8-1-1.1-1.4s-0.6-0.8-0.8-1.2
						C151,104.7,150.8,104.3,150.8,104.3z"/>
				</g>
				<g>
					<path class="st15" d="M70.5,99.2c0,0,5.5,7.7,11.5,0.9c0,0,0.1,7.2-5.8,7.2C70.4,107.3,70.5,99.2,70.5,99.2z"/>
					<ellipse class="st16" cx="76.3" cy="99.2" rx="5.8" ry="5.1"/>
					<ellipse class="st4" cx="74.1" cy="96.8" rx="1.8" ry="1.6"/>
					<ellipse class="st4" cx="72" cy="99.2" rx="0.8" ry="0.7"/>
					<path class="st9" d="M85.1,103.1c0,0-0.1,0.4-0.4,1.2c-0.2,0.4-0.3,0.8-0.6,1.3c-0.2,0.5-0.6,1.1-0.9,1.6
						c-0.4,0.6-0.8,1.2-1.4,1.8c-0.5,0.6-1.1,1.2-1.8,1.7c-0.6,0.6-1.4,1.1-2.1,1.6c-0.8,0.5-1.6,0.9-2.4,1.3
						c-0.9,0.3-1.7,0.7-2.6,0.9c-0.9,0.2-1.7,0.5-2.6,0.6s-1.7,0.2-2.5,0.3c-0.8,0-1.5,0-2.2,0.1c-0.3,0-0.7,0-1,0
						c-0.3,0-0.6-0.1-0.9-0.1c-0.5-0.1-1-0.1-1.4-0.1c-0.8-0.1-1.2-0.1-1.2-0.1s0.5,0,1.2-0.1c0.4,0,0.9-0.1,1.4-0.1
						s1.2-0.1,1.8-0.2c0.7-0.1,1.4-0.2,2.1-0.3c0.7-0.2,1.5-0.3,2.3-0.5c0.8-0.1,1.6-0.5,2.4-0.7c0.8-0.2,1.6-0.6,2.4-0.9
						c0.8-0.4,1.6-0.8,2.3-1.2c0.7-0.5,1.5-0.9,2.1-1.4c0.7-0.5,1.3-1,1.8-1.5s1-1,1.5-1.5c0.4-0.5,0.8-1,1.1-1.4
						c0.3-0.4,0.6-0.8,0.8-1.2C84.9,103.6,85.1,103.1,85.1,103.1z"/>
				</g>
			</g>
		</g>
		<g>
			<g>
				<path class="st16" d="M33.9,76.9v17.3h5.8l11.2,28.6h52.1l9.7-30.1h8.3l8.8,30.1H181l12.6-30.1h5.4V76.9H33.9z M99.8,115.3H54
					l-5.8-30.8h55.5L99.8,115.3z M179.1,115.3h-45.7l-3.9-30.8h55.5L179.1,115.3z"/>
			</g>
			
				<linearGradient id="SVGID_1_" gradientUnits="userSpaceOnUse" x1="58.7007" y1="434.1" x2="88.5007" y2="434.1" gradientTransform="matrix(1 0 0 -1 0 534)">
				<stop  offset="0" style="stop-color:#E1F3FC"/>
				<stop  offset="0.4445" style="stop-color:#EBF7FD"/>
				<stop  offset="1" style="stop-color:#FFFFFF"/>
			</linearGradient>
			<polygon class="st17" points="73.3,85 58.7,114.7 74.7,114.7 88.5,85 			"/>
			
				<linearGradient id="SVGID_2_" gradientUnits="userSpaceOnUse" x1="81.5565" y1="434.1" x2="100.7166" y2="434.1" gradientTransform="matrix(1 0 0 -1 0 534)">
				<stop  offset="0" style="stop-color:#E1F3FC"/>
				<stop  offset="0.4445" style="stop-color:#EBF7FD"/>
				<stop  offset="1" style="stop-color:#FFFFFF"/>
			</linearGradient>
			<polygon class="st18" points="96.2,85 81.6,114.7 86.9,114.7 100.8,85 			"/>
			
				<linearGradient id="SVGID_3_" gradientUnits="userSpaceOnUse" x1="135.8565" y1="434.1" x2="165.6565" y2="434.1" gradientTransform="matrix(1 0 0 -1 0 534)">
				<stop  offset="0" style="stop-color:#E1F3FC"/>
				<stop  offset="0.4445" style="stop-color:#EBF7FD"/>
				<stop  offset="1" style="stop-color:#FFFFFF"/>
			</linearGradient>
			<polygon class="st19" points="150.4,85 135.9,114.7 151.8,114.7 165.7,85 			"/>
			
				<linearGradient id="SVGID_4_" gradientUnits="userSpaceOnUse" x1="158.7145" y1="434.1" x2="177.8755" y2="434.1" gradientTransform="matrix(1 0 0 -1 0 534)">
				<stop  offset="0" style="stop-color:#E1F3FC"/>
				<stop  offset="0.4445" style="stop-color:#EBF7FD"/>
				<stop  offset="1" style="stop-color:#FFFFFF"/>
			</linearGradient>
			<polygon class="st20" points="173.3,85 158.8,114.7 164.1,114.7 177.9,85 			"/>
			<polygon class="st16" points="33.9,94.3 36.6,99.1 38,94.1 			"/>
			<polygon class="st16" points="199.1,92.8 196.9,95.9 195.9,92.8 			"/>
		</g>
	</g>
</g>
</svg>
