<?xml version="1.0" encoding="utf-8"?>
<!-- Generator: Adobe Illustrator 19.2.1, SVG Export Plug-In . SVG Version: 6.00 Build 0)  -->
<svg version="1.1" id="Layer_1" xmlns="http://www.w3.org/2000/svg" xmlns:xlink="http://www.w3.org/1999/xlink" x="0px" y="0px"
	 viewBox="0 0 231.3 276.5" style="enable-background:new 0 0 231.3 276.5;" xml:space="preserve">
<style type="text/css">
	.st0{fill:#B23E1F;}
	.st1{fill:#E5E0BE;stroke:#B29572;stroke-miterlimit:10;}
	.st2{fill:#DBD5B4;}
	.st3{fill:#3C0500;}
	.st4{fill:#923E2C;}
	.st5{fill:#AF4837;}
	.st6{fill:#E5E0BE;}
	.st7{fill:#D3B58D;}
	.st8{fill:#FFFFFF;}
	.st9{fill:#A6A8AB;}
	.st10{display:none;}
	.st11{display:inline;}
	.st12{fill:#424242;}
	.st13{fill:#303030;}
	.st14{display:inline;fill:#424242;}
	.st15{opacity:0.3;fill:#B3DB52;enable-background:new    ;}
	.st16{fill:#B3DB52;}
	.st17{fill:#E8DAC4;}
	.st18{fill:#231F20;}
	.st19{fill:#C94C22;}
	.st20{opacity:0.38;}
</style>
<g id="Layer_6">
	<path class="st0" d="M35.3,94.8c0,0-44,87.6,37.8,108.3l-5-17.6c0,0,9.2,17.2,33.6,5.8L35.3,94.8z"/>
	<path class="st0" d="M197.8,94.8c0,0,44,87.6-37.8,108.3l5-17.6c0,0-9.2,17.2-33.6,5.8L197.8,94.8z"/>
</g>
<g id="head">
	<g>
		<g>
			<path class="st1" d="M114.8,39.2c51,0,84.3,30.6,84.3,76.3s-33.3,89.3-84.3,89.3s-80.9-37-80.9-82.8S63.7,39.2,114.8,39.2z"/>
			<path class="st2" d="M114.8,40.2c-38.9,8.1-68.1,42.7-68.1,88.4s43.8,74.7,68.1,75.2c-51,0-79.8-36.1-79.8-81.8
				S63.7,40.2,114.8,40.2z"/>
			<g>
				<g>
					<path class="st3" d="M85,148c0,0,23.6,6.3,49.3,0.8s29.1-3.2,29,0.9c-0.1,7.3-9.2,3.6-27,5.5c-17.7,1.9-56,7.1-67.4-4.1
						C67.5,141.9,81,147.2,85,148z"/>
					<g>
						<path class="st4" d="M114.8,149.8c-21.8,0-38.9-4.9-44-1.6c8.5,2.5,16.5,4.7,46.9,3.7s39.7-2.8,44.7-5
							C159.9,141.3,136.5,149.8,114.8,149.8z"/>
					</g>
					<path class="st5" d="M164.9,144.3c-2.9-2.5-7-3.8-12.7-3.8c-5-0.1-11.3,0.7-19.2,2.4c-7.1,1.5-14.8,2.3-22.8,2.1
						c-13.6-0.2-23.5-2.8-23.6-2.8h-0.1h-0.1c-1-0.2-3.7-0.8-6.8-0.8c-5.7-0.1-9.9,1.4-12.7,4.5c-1.6,1.8-3,1.5-0.6,8.1
						s13.2,9.1,47.7,9.1s50.3-5.2,52-9.2C167.6,149.9,166.7,145.8,164.9,144.3z M134.8,155c-17.7,1.9-61.4,1.1-64.7-4
						c-3.2-5.1,11-3.7,14.9-2.9c0,0,23.6,6.3,49.3,0.8s28.4-4.5,28.3-0.4C162.5,155.8,152.5,153.1,134.8,155z"/>
					<g>
						<path class="st4" d="M75.7,142.8c0,0,0.2,0.2,0.4,0.5c0.2,0.3,0.5,0.8,0.7,1.2c0.2,0.5,0.4,0.9,0.6,1.3
							c0.1,0.4,0.2,0.6,0.2,0.6s-0.2-0.2-0.4-0.5c-0.2-0.3-0.5-0.8-0.7-1.2c-0.2-0.5-0.4-0.9-0.6-1.3
							C75.8,143.1,75.7,142.8,75.7,142.8z"/>
						<path class="st4" d="M90.7,144.4c0,0,0.1,0.3,0.1,0.7s0.1,1,0.1,1.5s0,1.1-0.1,1.5c0,0.4-0.1,0.7-0.1,0.7s-0.1-0.3-0.1-0.7
							s-0.1-1-0.1-1.5s0-1.1,0.1-1.5C90.6,144.8,90.7,144.4,90.7,144.4z"/>
						<path class="st4" d="M116.4,145.9c0,0,0.1,0.2,0.1,0.6s0.1,0.8,0.1,1.3s0,1-0.1,1.3c0,0.4-0.1,0.6-0.1,0.6s-0.1-0.2-0.1-0.6
							s-0.1-0.8-0.1-1.3s0-1,0.1-1.3C116.3,146.1,116.4,145.9,116.4,145.9z"/>
						<path class="st4" d="M140.9,142.8c0,0,0,0.3,0,0.6c0,0.4-0.1,0.9-0.2,1.4c-0.1,0.5-0.2,1-0.3,1.4s-0.2,0.6-0.2,0.6
							s0-0.3,0-0.6c0-0.4,0.1-0.9,0.2-1.4c0.1-0.5,0.2-1,0.3-1.4C140.8,143.1,140.9,142.8,140.9,142.8z"/>
						<path class="st4" d="M161.1,143.3c0,0-0.1,0.2-0.3,0.6c-0.2,0.4-0.5,0.8-0.8,1.2s-0.6,0.9-0.9,1.2c-0.3,0.3-0.4,0.5-0.4,0.5
							s0.1-0.3,0.3-0.6c0.2-0.4,0.5-0.8,0.8-1.3c0.3-0.4,0.6-0.9,0.9-1.2C160.9,143.5,161.1,143.3,161.1,143.3z"/>
					</g>
				</g>
			</g>
			<g>
				<g>
					<path class="st6" d="M30.5,254.1C20.2,218.3,36,183.7,49.1,151v-0.1c0,0,0-0.1,0.1-0.2s-0.1-0.1-0.1,0c0,0,0,0,0,0.1
						c-0.2-0.3-0.6-0.4-0.9-0.5c-0.8-0.4-1.7-0.8-2.5-1.2c-1.4-0.7-3.1-1.5-4.5-2.4c-0.1,0-0.2,0-0.2,0.2c-5.2,8.2-9.7,17-14.3,25.6
						c-4.7,9.1-9.1,18.5-12.6,28.2c-7.4,20.6-10.6,43.6-6,65.3c0,0.1,0.1,0.1,0.2,0.2c0.5,0,1-0.1,1.5-0.1c0.4-0.1,0.9,0,1.3-0.1
						c0.1,0.1,0.3,0.1,0.3,0l0,0l0,0c0.1-0.1,0.2-0.2,0.1-0.2c0.1-0.7,0-1.5-0.1-2.2c-0.1-1-0.1-2.1,0.2-3c0.4,0,0.8-0.1,1.2-0.2
						s0.8,0,1.1,0c-0.1,0.8,0.2,1.6,0.4,2.3c0.4,1.1,1,2.2,1.3,3.4c-0.2,0.2,0,0.4,0.2,0.4c0,0,0.1,0,0.1-0.1
						c-0.1,0.1-0.1,0.1,0.1,0c0.1-0.1,0.3,0,0.4,0c0.3,0,0.8,0,1.1-0.1c0.4-0.1,1-0.1,1.4-0.2c0.1,0,0.2,0,0.2-0.2
						c0.2-2.3-0.9-4.6-1.3-6.7c0.3,0,0.6-0.2,0.8-0.2c0.2,0,0.5,0,0.8-0.1c0.1,1,0.7,1.9,1.2,2.7c0.6,1,1.3,2.3,2.2,3.1
						c0.1,0,0.2,0.1,0.2,0.1c0.6-0.2,1.1-0.8,1.7-1.1c0.3-0.2,0.5-0.3,0.8-0.5c0,0,0.1-0.1,0.2-0.2c0.2,0.1,0.3,0,0.3-0.2v-0.1
						c0,0,0,0-0.1,0c-0.5-1.5-1.2-2.8-1.8-4.2c-0.4-1-0.6-2.1-0.6-3.2c0-1.3,0.9-1.8,1.8-2.3c0.1,1.5,1.2,2.8,2.2,3.8c0,0,0,0,0,0.1
						c-0.1,0.2,0.1,0.3,0.2,0.2c0.6-0.2,1-0.7,1.4-1.1c0.5-0.5,1-0.8,1.5-1.3C30.4,254.2,30.5,254.2,30.5,254.1z M15.9,265.8
						C15.9,265.8,15.8,265.8,15.9,265.8C15.8,265.8,15.9,265.8,15.9,265.8L15.9,265.8z M28.6,254.9c-0.5,0.4-0.9,0.8-1.3,1.3
						c-0.3-0.6-0.6-1.2-0.9-1.8c-0.4-0.7-0.6-1.5-1-2.1c-0.1-0.1-0.3-0.1-0.3,0c-4.8-0.2-1.7,7.6,0.1,9.9c-0.2,0-0.4,0.2-0.6,0.3
						c-0.5,0.3-1.4,0.8-1.7,1.3c-0.3-0.9-1-1.6-1.4-2.4c-0.7-1-1.2-2-1.9-3c0-0.1,0-0.1-0.1-0.1c-0.2-0.2-0.8-0.2-1-0.2
						c-0.3,0-0.8,0.1-0.9,0.5v0.1c-0.3,0.8,0.1,2.1,0.2,2.9c0.3,1.3,0.4,2.6,1,3.8c-0.6-0.2-1.4-0.1-1.9-0.1c-0.2,0-0.5,0-0.8,0.1
						c0-0.9-0.2-1.6-0.4-2.3c-0.3-1.1-0.7-2.3-1.2-3.3c-0.1-0.1-0.2-0.2-0.3-0.1c-0.7-0.5-2-0.2-2.5,0.2c0,0,0,0,0,0.1l0,0l0,0l0,0
						c-0.6,0.7-0.6,1.8-0.6,2.7c0,0.9,0,1.7,0.2,2.5c-0.4,0-0.8-0.1-1.2,0s-1,0.1-1.4,0.2c-1.4-11.7-2.1-23.1-0.7-34.9
						c1.2-10.5,3.9-20.9,7.6-30.9c3.4-9.4,7.7-18.4,12.2-27.3c4.4-8.6,9.5-17,13.7-25.8c0.2,0.3,7.6,4,8,3.9
						c-7.9,16.4-14.9,33.9-19.2,51.6c-4.1,16.6-6,35.4,0.2,51.7C29.6,254.2,29,254.5,28.6,254.9z"/>
					<path class="st2" d="M49.3,150.4c-0.3-0.2-7.5-4-8-4c-4.1,8.8-9.2,17.4-13.7,26.1c-4.5,8.9-8.9,17.9-12.2,27.3
						c-3.6,10-6.4,20.2-7.6,30.9c-1.3,11.8-0.6,23.2,0.7,34.9c0.4-0.2,0.8-0.2,1.4-0.2c0.3,0,0.8,0,1.2,0c-0.2-0.8-0.2-1.8-0.2-2.5
						c0-0.9,0-1.9,0.6-2.7l0,0l0,0l0,0c0,0,0,0,0-0.1c0.7-0.4,1.9-0.7,2.5-0.2c0.1-0.1,0.2,0,0.3,0.1c0.5,1,0.8,2.2,1.2,3.3
						c0.3,0.7,0.4,1.5,0.4,2.3c0.3-0.1,0.6-0.1,0.8-0.1c0.5,0,1.3-0.2,1.9,0.1c-0.5-1.2-0.8-2.5-1-3.8c-0.2-0.8-0.5-2-0.2-2.9v-0.1
						c0.1-0.4,0.6-0.5,0.9-0.5s0.8,0,1,0.2c0.1,0,0.1,0.1,0.1,0.1c0.7,1,1.2,2,1.9,3c0.5,0.7,1.3,1.5,1.4,2.4
						c0.4-0.6,1.2-0.9,1.7-1.3c0.2-0.2,0.4-0.3,0.6-0.3c-1.7-2.3-4.8-10.1-0.1-9.9c0-0.1,0.3-0.1,0.3,0c0.4,0.7,0.7,1.4,1,2.1
						c0.3,0.5,0.6,1.2,0.9,1.8c0.3-0.5,0.9-1,1.3-1.3c0.5-0.4,0.9-0.7,1.5-0.9c-6.2-16.3-4.3-35.1-0.2-51.7
						C34.2,184.5,41.4,166.8,49.3,150.4z"/>
				</g>
				<g>
					<path class="st6" d="M205.5,250.5c0.6,0.4,1.2,0.6,1.7,1c0.5,0.3,1,0.7,1.5,0.8c0.1,0,0.3-0.2,0.2-0.2c0,0,0,0-0.1-0.1
						c0.8-1.3,1.6-2.6,1.5-4.1c1.1,0.3,2,0.7,2.2,2c0.2,1.1,0.2,2.2,0,3.3c-0.3,1.5-0.8,3-1,4.4c0,0,0,0-0.1,0.1l0.1,0.1
						c0,0.1,0.2,0.3,0.3,0.2c0.1,0.1,0.1,0,0.2,0.1c0.3,0.2,0.6,0.2,0.9,0.4c0.6,0.2,1.2,0.7,1.8,0.8c0.1,0.1,0.1,0,0.2,0
						c0.7-1,1-2.4,1.6-3.5c0.3-0.9,0.9-1.9,0.7-2.8c0.3,0.1,0.6,0,0.8,0c0.3-0.1,0.6,0.1,0.9,0.1c0,2.2-0.6,4.7,0,6.9
						c0.1,0.1,0.1,0.2,0.2,0.1c0.4,0.1,1,0.1,1.4,0c0.4,0,0.7,0,1.1-0.1c0.1,0,0.3-0.1,0.4-0.1c0.2,0,0.1,0,0.1-0.1
						c0,0,0.1-0.1,0.1,0c0.2,0,0.2-0.3,0.1-0.4c0.1-1.1,0.6-2.4,0.7-3.5c0.1-0.8,0.3-1.5,0-2.3c0.3-0.1,0.7-0.2,1.1-0.2
						s0.9,0.1,1.3,0c0.4,0.9,0.6,2,0.7,3c0,0.7,0.1,1.5,0.3,2.1c-0.1,0.1,0,0.1,0.1,0.2l0,0l0,0c0.1,0.1,0.3,0.1,0.3-0.1
						c0.4,0,0.9-0.1,1.3-0.2c0.5-0.1,1-0.1,1.5-0.2c0.1-0.1,0.1-0.1,0.1-0.2c0.6-22.1-6.7-44.2-17.7-63.2
						c-5.2-8.9-11.1-17.3-17.4-25.5c-6-7.7-12-15.4-18.6-22.6c0-0.1-0.2-0.3-0.2-0.1c-1.1,1.2-2.7,2.2-4,3.1
						c-0.7,0.5-1.5,1.1-2.3,1.7c-0.3,0.2-0.7,0.4-0.8,0.7c0,0,0,0-0.1-0.1s-0.1,0-0.1,0.1c0.1,0.1,0.1,0.1,0.1,0.2l0.1,0.1
						c18.8,29.8,40.6,61,36.9,98.1C205.3,250.6,205.5,250.6,205.5,250.5z M221.8,259.3L221.8,259.3L221.8,259.3L221.8,259.3z
						 M205.8,250.3c3.1-17.2-2.1-35.3-9.1-50.9c-7.5-16.6-17.5-32.6-28.2-47.3c0.4,0,7-4.9,7.1-5.2c5.6,8,12.1,15.3,18.1,22.9
						c6.1,7.9,12,16,16.9,24.6c5.4,9.1,9.9,18.8,13,29c3.4,11.3,4.8,22.7,5.5,34.4c-0.4-0.1-0.9-0.1-1.4,0c-0.3,0.1-0.8,0.1-1.2,0.2
						c0.1-0.9-0.1-1.8-0.2-2.5c-0.1-0.8-0.3-1.9-1-2.5l0,0l0,0l0,0c0,0,0,0-0.1-0.1c-0.7-0.3-2-0.4-2.5,0.2c-0.1,0-0.2,0-0.3,0.2
						c-0.3,1.1-0.4,2.3-0.6,3.5c-0.1,0.8-0.1,1.6,0,2.3c-0.3-0.1-0.6,0-0.8,0c-0.5,0.1-1.3,0.1-1.9,0.4c0.3-1.2,0.3-2.6,0.3-3.9
						c0.1-0.9,0.2-2.1-0.3-2.9l-0.1-0.1c-0.2-0.3-0.7-0.4-1-0.3c-0.3,0.1-0.8,0.1-1,0.3c-0.1,0.1,0,0.1,0,0.1
						c-0.5,1.1-0.8,2.2-1.3,3.3c-0.3,0.8-1,1.7-1.1,2.7c-0.5-0.5-1.3-0.8-1.9-0.9c-0.2-0.1-0.5-0.2-0.7-0.2
						c1.3-2.6,2.9-10.8-1.7-9.8c-0.1-0.1-0.3-0.1-0.3,0.1c-0.3,0.7-0.4,1.5-0.7,2.2c-0.2,0.6-0.4,1.3-0.6,2c-0.4-0.5-1-0.8-1.6-1.1
						C206.9,250.6,206.3,250.3,205.8,250.3z"/>
					<path class="st6" d="M168.3,151.9c0.3-0.3,6.6-5.4,7.2-5.4c5.6,8,12.2,15.4,18.2,23.2c6.1,7.9,12,16,16.9,24.6
						c5.4,9.1,9.9,18.8,13,29c3.4,11.3,4.8,22.7,5.5,34.4c-0.4-0.1-0.9-0.1-1.4,0c-0.3,0.1-0.8,0.1-1.2,0.2c0.1-0.9-0.1-1.8-0.2-2.5
						c-0.1-0.8-0.3-1.9-1-2.5l0,0l0,0l0,0c0,0,0,0-0.1-0.1c-0.7-0.3-2-0.4-2.5,0.2c-0.1,0-0.2,0-0.3,0.2c-0.3,1.1-0.4,2.3-0.6,3.5
						c-0.1,0.8-0.1,1.6,0,2.3c-0.3-0.1-0.6,0-0.8,0c-0.5,0.1-1.3,0.1-1.9,0.4c0.3-1.2,0.3-2.6,0.3-3.9c0.1-0.9,0.2-2.1-0.3-2.9
						l-0.1-0.1c-0.2-0.3-0.7-0.4-1-0.3c-0.3,0.1-0.8,0.1-1,0.3c-0.1,0.1,0,0.1,0,0.1c-0.5,1.1-0.8,2.2-1.3,3.3
						c-0.3,0.8-1,1.7-1.1,2.7c-0.5-0.5-1.3-0.8-1.9-0.9c-0.2-0.1-0.5-0.2-0.7-0.2c1.3-2.6,2.9-10.8-1.7-9.8
						c-0.1-0.1-0.3-0.1-0.3,0.1c-0.3,0.7-0.4,1.5-0.7,2.2c-0.2,0.6-0.4,1.3-0.6,2c-0.4-0.5-1-0.8-1.6-1.1c-0.5-0.3-1-0.6-1.7-0.6
						c3.1-17.2-2.1-35.3-9.1-50.9C189.1,182.7,179,166.6,168.3,151.9z"/>
				</g>
			</g>
		</g>
		
			<ellipse transform="matrix(0.3298 -0.9441 0.9441 0.3298 41.5714 170.8063)" class="st7" cx="141.1" cy="56.1" rx="11.1" ry="19.9"/>
	</g>
	<path class="st8" d="M85.2,150c0,0-1.1,7,6.8,7.5s6.6-5.6,6.6-5.6L85.2,150z"/>
	<path class="st8" d="M105,151.8c0,0-1.1,7,6.8,7.5s6.7-7.4,6.7-7.4L105,151.8z"/>
	<path class="st8" d="M124.8,150.7c0,0-1.1,7,6.8,7.5s6.8-9.5,6.8-9.5L124.8,150.7z"/>
	<path class="st9" d="M112.8,157.8c-4.5-0.3-6.1-2.6-6.6-4.7c4.4,0.8,12.4-0.2,12.4-0.2s0-0.5-0.1-1l-12.5-0.1h-1c0,0-1.1,7,6.8,7.5
		c3.7,0.2,5.4-1.4,6.1-3.1C116.9,157.2,115.3,158,112.8,157.8z"/>
	<path class="st9" d="M98.7,153c0.1-0.7-0.1-1-0.1-1c-3.3-0.2-12.3-1.7-12.3-1.7l-1-0.1c0,0-1.1,7,6.8,7.5c4.2,0.3,5.8-1.3,6.4-2.9
		c-1,0.9-2.6,1.5-5.3,1.4c-4.6-0.3-6.1-2.8-6.6-4.8l0,0C90.6,152.6,98.7,153,98.7,153z"/>
	<path class="st9" d="M132.6,156.7c-4.5-0.3-6.1-2.7-6.6-4.7c6.7-0.6,12.5-2.4,12.5-2.4s0-0.5-0.1-1l-12.6,2l-1,0.1
		c0,0-1.1,7,6.8,7.5c3.2,0.2,4.9-1.4,5.9-3.3C136.5,156,134.9,156.8,132.6,156.7z"/>
</g>
<g id="Layer_2" class="st10">
	<g id="muff_3_" class="st11">
		<g id="muff">
			<path class="st12" d="M34.9,138.4c2.2,9.5-11.7,9.5-20,10.1c-5.1,0.4-8.2-4.3-10.9-14.4s0.5-38.9,4.1-51.8
				c4-14.4,5.9-16.3,13.7-16.7c12.2-0.7,22.9,9.9,18.8,18.9C36,94.8,31.2,122,34.9,138.4z"/>
		</g>
		<g id="muff_2_">
			<path class="st13" d="M34.9,138.4c2.2,9.5-11.7,9.5-20,10.1c10.4-2.6,15.7-2.1,13-12.1s0.5-38.9,4.1-51.8
				c4-14.4-4.2-16.7-10.3-19c12.2-0.7,22.9,9.9,18.8,18.9C36,94.8,31.2,122,34.9,138.4z"/>
		</g>
	</g>
	<g id="muff_1_" class="st11">
		<g id="muff_5_">
			<path class="st12" d="M197.8,134.1c-2.5,9.5,11.4,9.8,19.8,10.7c5.1,0.5,8.3-4.1,11.3-14.1s0.5-38.9-2.7-51.9
				c-3.6-14.5-5.5-16.4-13.2-17.1c-12.2-1-23.1,9.3-19.3,18.4C197.9,90.5,202,117.8,197.8,134.1z"/>
		</g>
		<g id="muff_4_">
			<path class="st13" d="M197.8,134.1c-2.5,9.5,11.4,9.8,19.8,10.7c-10.4-2.9-15.7-2.5-12.7-12.4s0.5-38.9-2.7-51.9
				c-3.6-14.5,4.7-16.5,10.7-18.7c-12.2-1-23.1,9.3-19.3,18.4C197.9,90.5,202,117.8,197.8,134.1z"/>
		</g>
	</g>
	<path class="st14" d="M20.3,68c0,0,4.6-65,101.9-65c80.2,0,90.2,70.6,90.2,70.6h-4.9c0,0-4.9-65.6-88.3-65.6
		C36.5,8,25.5,68.5,25.5,68.5L20.3,68z"/>
	<g class="st11">
		<circle class="st15" cx="208.8" cy="137.4" r="3.1"/>
		<circle class="st16" cx="208.8" cy="137.4" r="1.3"/>
	</g>
</g>
<g id="Layer_3">
	<g>
		<g>
			<g>
				<g>
					<path class="st17" d="M164.6,99.1c0,0-5.5,7.7-11.5,0.9c0,0-0.1,7.2,5.8,7.2C164.7,107.2,164.6,99.1,164.6,99.1z"/>
					<ellipse class="st18" cx="158.8" cy="99.2" rx="5.8" ry="5.1"/>
					<ellipse class="st8" cx="156.6" cy="96.8" rx="1.8" ry="1.6"/>
					<ellipse class="st8" cx="154.5" cy="99.2" rx="0.8" ry="0.7"/>
				</g>
				<g>
					<path class="st17" d="M70.5,99.2c0,0,5.5,7.7,11.5,0.9c0,0,0.1,7.2-5.8,7.2C70.4,107.3,70.5,99.2,70.5,99.2z"/>
					<ellipse class="st18" cx="76.3" cy="99.2" rx="5.8" ry="5.1"/>
					<ellipse class="st8" cx="74.1" cy="96.8" rx="1.8" ry="1.6"/>
					<ellipse class="st8" cx="72" cy="99.2" rx="0.8" ry="0.7"/>
				</g>
			</g>
		</g>
	</g>
</g>
<g id="Layer_7">
</g>
<g id="Layer_5">
	<path class="st19" d="M167,64c0,0-30,30.8-113.3,20.7c0,0-20.3,44.4-15.6,62.2c0,0-32.8-69.1,39.6-119.4c0,0,53.5-29.6,95.1,15.1
		L167,64z"/>
	<path class="st19" d="M167,64c0,0-3.8,30.2,16.4,44.1l11.1,36.6c0,0,31.7-59.2-21.8-102.1L167,64z"/>
	<path class="st0" d="M165.8,40.1c5.9,4,5.7,18.3-26.6,30.9s-54,9-54,9s22.3,0.6,45.8-16.1S159.9,36,165.8,40.1z"/>
	<path class="st0" d="M154.4,32.8c3.4,3.7-8.7,13.3-23.3,21.4C119,60.9,89.5,67.7,89.5,67.7s24.9-8.3,38.1-19.3
		C136.2,41.2,148.8,26.8,154.4,32.8z"/>
	<path class="st0" d="M142.5,25.6c3,2.7-5.7,11.2-16.6,18.9c-9,6.4-22.6,9.5-22.6,9.5s9.8-4,19.4-13.8
		C128.8,33.8,137.6,21.3,142.5,25.6z"/>
	<path class="st0" d="M85.1,29.5c0,0-26.2,19.5-35.9,57.2C49.3,65.2,51.3,44.2,85.1,29.5z"/>
</g>
<g id="Layer_8" class="st20">
	<g>
		<circle class="st5" cx="75.3" cy="115.2" r="1.8"/>
		<circle class="st5" cx="66.2" cy="112.6" r="1.3"/>
		<circle class="st5" cx="69.7" cy="122.3" r="1.2"/>
		<circle class="st5" cx="60" cy="120" r="0.9"/>
	</g>
	<g>
		<circle class="st5" cx="153.8" cy="116.8" r="1.8"/>
		<circle class="st5" cx="162.9" cy="114.3" r="1.3"/>
		<circle class="st5" cx="159.4" cy="124" r="1.2"/>
		<circle class="st5" cx="169.1" cy="121.6" r="0.9"/>
	</g>
</g>
<g id="Layer_9">
	<path class="st1" d="M87,107.2c0,0-2.5-4.3-10.7-4.3c-8.3,0-11.3,3.6-11.3,3.6"/>
	<path class="st1" d="M150.8,106.5c0,0,3.1-4.4,10.8-4.7c7.7-0.3,10,4,10,4"/>
</g>
</svg>
