<?xml version="1.0" encoding="utf-8"?>
<!-- Generator: Adobe Illustrator 19.2.1, SVG Export Plug-In . SVG Version: 6.00 Build 0)  -->
<svg version="1.1" xmlns="http://www.w3.org/2000/svg" xmlns:xlink="http://www.w3.org/1999/xlink" x="0px" y="0px"
	 viewBox="0 0 231.3 276.5" style="enable-background:new 0 0 231.3 276.5;" xml:space="preserve">
<style type="text/css">
	.st0{opacity:0.12;}
	.st1{fill:#F4E16E;stroke:#B29572;stroke-miterlimit:10;}
	.st2{fill:#DBC971;}
	.st3{fill:#923E2C;}
	.st4{fill:#AF4837;}
	.st5{fill:#E5E0BE;}
	.st6{fill:#E8DAC4;}
	.st7{fill:#231F20;}
	.st8{fill:#FFFFFF;}
	.st9{display:none;}
	.st10{display:inline;}
	.st11{fill:#01A6FF;}
	.st12{fill:#E00102;}
	.st13{fill:#E85259;}
	.st14{fill:#44B2E2;}
	.st15{fill-rule:evenodd;clip-rule:evenodd;fill:#19663E;}
	.st16{fill-rule:evenodd;clip-rule:evenodd;fill:#2BB673;}
	.st17{fill:#515151;stroke:#7C7C7C;stroke-miterlimit:10;}
	.st18{fill:#3D3D3D;}
	.st19{opacity:0.28;}
</style>
<g id="Layer_4">
	<circle class="st0" cx="116.6" cy="122.9" r="105"/>
</g>
<g id="head">
	<g>
		<g>
			<path class="st1" d="M114.8,39.2c51,0,84.3,30.6,84.3,76.3s-33.3,89.3-84.3,89.3S33.9,167.8,33.9,122S63.7,39.2,114.8,39.2z"/>
			<path class="st2" d="M114.8,40.2c-38.9,8.1-68.1,42.7-68.1,88.4s43.8,74.7,68.1,75.2c-51,0-79.8-36.1-79.8-81.8
				S63.7,40.2,114.8,40.2z"/>
			<g>
				<g>
					<g>
						<path class="st3" d="M114.8,149.8c-21.8,0-38.9-4.9-44-1.6c6.8,5.9,15.4,7.2,45.8,6.2s40.8-5.4,45.8-7.5
							C159.9,141.3,136.5,149.8,114.8,149.8z"/>
					</g>
					<path class="st4" d="M164.9,144.3c-2.9-2.5-7-3.8-12.7-3.8c-5-0.1-11.3,0.7-19.2,2.4c-7.1,1.5-14.8,2.3-22.8,2.1
						c-13.6-0.2-23.5-2.8-23.6-2.8h-0.1h-0.1c-1-0.2-3.7-0.8-6.8-0.8c-5.7-0.1-15.7,6-13.3,12.6c2.4,6.6,18.2,11.1,52.7,11.1
						s45.3-7.2,47-11.2C167.6,149.9,166.7,145.8,164.9,144.3z M135.2,152.8c-17.7,1.9-54.3,3.5-64.4-4.7c23.2,2.2,46.3,5.2,72-0.3
						c9.9-1.2,17.2-2.7,19.6-0.9C156,149,153,150.9,135.2,152.8z"/>
					<g>
						<path class="st3" d="M75.7,142.8c0,0,0.2,0.2,0.4,0.5c0.2,0.3,0.5,0.8,0.7,1.2c0.2,0.5,0.4,0.9,0.6,1.3
							c0.1,0.4,0.2,0.6,0.2,0.6s-0.2-0.2-0.4-0.5c-0.2-0.3-0.5-0.8-0.7-1.2c-0.2-0.5-0.4-0.9-0.6-1.3
							C75.8,143.1,75.7,142.8,75.7,142.8z"/>
						<path class="st3" d="M90.7,144.4c0,0,0.1,0.3,0.1,0.7s0.1,1,0.1,1.5s0,1.1-0.1,1.5c0,0.4-0.1,0.7-0.1,0.7s-0.1-0.3-0.1-0.7
							c0-0.4-0.1-1-0.1-1.5s0-1.1,0.1-1.5C90.6,144.8,90.7,144.4,90.7,144.4z"/>
						<path class="st3" d="M116.4,145.9c0,0,0.1,0.2,0.1,0.6s0.1,0.8,0.1,1.3s0,1-0.1,1.3c0,0.4-0.1,0.6-0.1,0.6s-0.1-0.2-0.1-0.6
							s-0.1-0.8-0.1-1.3s0-1,0.1-1.3C116.3,146.1,116.4,145.9,116.4,145.9z"/>
						<path class="st3" d="M140.9,142.8c0,0,0,0.3,0,0.6c0,0.4-0.1,0.9-0.2,1.4c-0.1,0.5-0.2,1-0.3,1.4c-0.1,0.4-0.2,0.6-0.2,0.6
							s0-0.3,0-0.6c0-0.4,0.1-0.9,0.2-1.4c0.1-0.5,0.2-1,0.3-1.4C140.8,143.1,140.9,142.8,140.9,142.8z"/>
						<path class="st3" d="M161.1,143.3c0,0-0.1,0.2-0.3,0.6c-0.2,0.4-0.5,0.8-0.8,1.2s-0.6,0.9-0.9,1.2c-0.3,0.3-0.4,0.5-0.4,0.5
							s0.1-0.3,0.3-0.6c0.2-0.4,0.5-0.8,0.8-1.3c0.3-0.4,0.6-0.9,0.9-1.2C160.9,143.5,161.1,143.3,161.1,143.3z"/>
					</g>
				</g>
			</g>
			<g>
				<g>
					<path class="st5" d="M30.5,254.1c-10.3-35.8,5.5-70.4,18.6-103.1l0-0.1c0,0,0-0.1,0.1-0.2s-0.1-0.1-0.1,0c0,0,0,0,0,0.1
						c-0.2-0.3-0.6-0.4-0.9-0.5c-0.8-0.4-1.7-0.8-2.5-1.2c-1.4-0.7-3.1-1.5-4.5-2.4c-0.1,0-0.2,0-0.2,0.2c-5.2,8.2-9.7,17-14.3,25.6
						c-4.7,9.1-9.1,18.5-12.6,28.2c-7.4,20.6-10.6,43.6-6,65.3c0,0.1,0.1,0.1,0.2,0.2c0.5,0,1-0.1,1.5-0.1c0.4-0.1,0.9,0,1.3-0.1
						c0.1,0.1,0.3,0.1,0.3,0l0,0l0,0c0.1-0.1,0.2-0.2,0.1-0.2c0.1-0.7,0-1.5-0.1-2.2c-0.1-1-0.1-2.1,0.2-3c0.4,0,0.8-0.1,1.2-0.2
						c0.4-0.1,0.8,0,1.1,0c-0.1,0.8,0.2,1.6,0.4,2.3c0.4,1.1,1,2.2,1.3,3.4c-0.2,0.2,0,0.4,0.2,0.4c0,0,0.1,0,0.1-0.1
						c-0.1,0.1-0.1,0.1,0.1,0c0.1-0.1,0.3,0,0.4,0c0.3,0,0.8,0,1.1-0.1c0.4-0.1,1-0.1,1.4-0.2c0.1,0,0.2,0,0.2-0.2
						c0.2-2.3-0.9-4.6-1.3-6.7c0.3,0,0.6-0.2,0.8-0.2c0.2,0,0.5,0,0.8-0.1c0.1,1,0.7,1.9,1.2,2.7c0.6,1,1.3,2.3,2.2,3.1
						c0.1,0,0.2,0.1,0.2,0.1c0.6-0.2,1.1-0.8,1.7-1.1c0.3-0.2,0.5-0.3,0.8-0.5c0,0,0.1-0.1,0.2-0.2c0.2,0.1,0.3,0,0.3-0.2l0-0.1
						c0,0,0,0-0.1,0c-0.5-1.5-1.2-2.8-1.8-4.2c-0.4-1-0.6-2.1-0.6-3.2c0-1.3,0.9-1.8,1.8-2.3c0.1,1.5,1.2,2.8,2.2,3.8c0,0,0,0,0,0.1
						c-0.1,0.2,0.1,0.3,0.2,0.2c0.6-0.2,1-0.7,1.4-1.1c0.5-0.5,1-0.8,1.5-1.3C30.4,254.2,30.5,254.2,30.5,254.1z M15.9,265.8
						C15.9,265.8,15.8,265.8,15.9,265.8C15.8,265.8,15.9,265.8,15.9,265.8L15.9,265.8z M28.6,254.9c-0.5,0.4-0.9,0.8-1.3,1.3
						c-0.3-0.6-0.6-1.2-0.9-1.8c-0.4-0.7-0.6-1.5-1-2.1c-0.1-0.1-0.3-0.1-0.3,0c-4.8-0.2-1.7,7.6,0.1,9.9c-0.2,0-0.4,0.2-0.6,0.3
						c-0.5,0.3-1.4,0.8-1.7,1.3c-0.3-0.9-1-1.6-1.4-2.4c-0.7-1-1.2-2-1.9-3c0-0.1,0-0.1-0.1-0.1c-0.2-0.2-0.8-0.2-1-0.2
						c-0.3,0-0.8,0.1-0.9,0.5l0,0.1c-0.3,0.8,0.1,2.1,0.2,2.9c0.3,1.3,0.4,2.6,1,3.8c-0.6-0.2-1.4-0.1-1.9-0.1c-0.2,0-0.5,0-0.8,0.1
						c0-0.9-0.2-1.6-0.4-2.3c-0.3-1.1-0.7-2.3-1.2-3.3c-0.1-0.1-0.2-0.2-0.3-0.1c-0.7-0.5-2-0.2-2.5,0.2c0,0,0,0,0,0.1l0,0l0,0l0,0
						c-0.6,0.7-0.6,1.8-0.6,2.7c0,0.9,0,1.7,0.2,2.5c-0.4,0-0.8-0.1-1.2,0c-0.4,0.1-1,0.1-1.4,0.2c-1.4-11.7-2.1-23.1-0.7-34.9
						c1.2-10.5,3.9-20.9,7.6-30.9c3.4-9.4,7.7-18.4,12.2-27.3c4.4-8.6,9.5-17,13.7-25.8c0.2,0.3,7.6,4,8,3.9
						c-7.9,16.4-14.9,33.9-19.2,51.6c-4.1,16.6-6,35.4,0.2,51.7C29.6,254.2,29,254.5,28.6,254.9z"/>
					<path class="st2" d="M49.3,150.4c-0.3-0.2-7.5-4-8-4c-4.1,8.8-9.2,17.4-13.7,26.1c-4.5,8.9-8.9,17.9-12.2,27.3
						c-3.6,10-6.4,20.2-7.6,30.9c-1.3,11.8-0.6,23.2,0.7,34.9c0.4-0.2,0.8-0.2,1.4-0.2c0.3,0,0.8,0,1.2,0c-0.2-0.8-0.2-1.8-0.2-2.5
						c0-0.9,0-1.9,0.6-2.7l0,0l0,0l0,0c0,0,0,0,0-0.1c0.7-0.4,1.9-0.7,2.5-0.2c0.1-0.1,0.2,0,0.3,0.1c0.5,1,0.8,2.2,1.2,3.3
						c0.3,0.7,0.4,1.5,0.4,2.3c0.3-0.1,0.6-0.1,0.8-0.1c0.5,0,1.3-0.2,1.9,0.1c-0.5-1.2-0.8-2.5-1-3.8c-0.2-0.8-0.5-2-0.2-2.9l0-0.1
						c0.1-0.4,0.6-0.5,0.9-0.5c0.3,0,0.8,0,1,0.2c0.1,0,0.1,0.1,0.1,0.1c0.7,1,1.2,2,1.9,3c0.5,0.7,1.3,1.5,1.4,2.4
						c0.4-0.6,1.2-0.9,1.7-1.3c0.2-0.2,0.4-0.3,0.6-0.3c-1.7-2.3-4.8-10.1-0.1-9.9c0-0.1,0.3-0.1,0.3,0c0.4,0.7,0.7,1.4,1,2.1
						c0.3,0.5,0.6,1.2,0.9,1.8c0.3-0.5,0.9-1,1.3-1.3c0.5-0.4,0.9-0.7,1.5-0.9c-6.2-16.3-4.3-35.1-0.2-51.7
						C34.2,184.5,41.4,166.8,49.3,150.4z"/>
				</g>
				<g>
					<path class="st1" d="M183.7,153.9c3.4,9.1,7.9,18,11.8,27c3.9,9.2,7.6,18.5,10.2,28.1c2.9,10.2,4.9,20.7,5.3,31.3
						c0.5,11.8-1.1,23.2-3.3,34.7c-0.4-0.2-0.8-0.3-1.3-0.3c-0.3,0-0.8-0.1-1.2-0.1c0.3-0.8,0.3-1.8,0.4-2.5
						c0.1-0.9,0.2-1.9-0.4-2.7l0,0l0,0l0,0c0,0,0,0,0-0.1c-0.6-0.4-1.8-0.8-2.5-0.4c-0.1-0.1-0.2,0-0.3,0.1c-0.5,1-0.9,2.1-1.5,3.2
						c-0.3,0.7-0.5,1.5-0.6,2.3c-0.2-0.1-0.6-0.2-0.8-0.2c-0.5-0.1-1.3-0.2-1.9-0.1c0.6-1.1,1-2.5,1.2-3.7c0.3-0.8,0.7-2,0.4-2.9
						l0-0.1c-0.1-0.4-0.6-0.6-0.9-0.6s-0.8-0.1-1,0.1c-0.1,0-0.1,0.1-0.1,0.1c-0.8,0.9-1.3,1.9-2.1,2.9c-0.5,0.7-1.4,1.4-1.7,2.4
						c-0.4-0.6-1-1.1-1.6-1.4c-0.2-0.2-0.4-0.3-0.6-0.3c1.9-2.2,5.6-9.7,0.8-9.9c0-0.1-0.2-0.1-0.3,0c-0.4,0.6-0.8,1.4-1.2,2
						c-0.4,0.5-0.7,1.1-1.1,1.8c-0.3-0.5-0.8-1-1.2-1.4c-0.4-0.4-0.9-0.8-1.4-1c7.3-15.8,6.8-34.7,4-51.6
						c-3-18.1-8.8-36.2-15.4-53.1"/>
				</g>
			</g>
		</g>
	</g>
</g>
<g id="Layer_3">
	<g>
		<g>
			<g>
				<g>
					<path class="st6" d="M164.6,99.1c0,0-5.5,7.7-11.5,0.9c0,0-0.1,7.2,5.8,7.2C164.7,107.2,164.6,99.1,164.6,99.1z"/>
					<ellipse class="st7" cx="158.8" cy="99.2" rx="5.8" ry="5.1"/>
					<ellipse class="st8" cx="156.6" cy="96.8" rx="1.8" ry="1.6"/>
					<ellipse class="st8" cx="154.5" cy="99.2" rx="0.8" ry="0.7"/>
				</g>
				<g>
					<path class="st6" d="M70.5,99.2c0,0,5.5,7.7,11.5,0.9c0,0,0.1,7.2-5.8,7.2C70.4,107.3,70.5,99.2,70.5,99.2z"/>
					<ellipse class="st7" cx="76.3" cy="99.2" rx="5.8" ry="5.1"/>
					<ellipse class="st8" cx="74.1" cy="96.8" rx="1.8" ry="1.6"/>
					<ellipse class="st8" cx="72" cy="99.2" rx="0.8" ry="0.7"/>
				</g>
			</g>
		</g>
	</g>
</g>
<g id="Layer_5" class="st9">
	<g class="st10">
		<path class="st0" d="M143,71.9c-12,0-18.1,2.9-26.9,2.9c-8.7,0-14-2.9-26.1-2.9c-5.1,0-54.7,0-54.7,0l5.4,53.8
			c11.3,5.3,54.8,3.2,58,0.7c8.2-6.4,8-25.8,17.8-24.9c9.8-0.9,9.6,18.4,17.8,24.9c3.2,2.5,46.1,4.7,57.4-0.7l6.2-53.8
			C197.8,71.9,148.1,71.9,143,71.9z M96.4,120.5c-1.6,2.3-42.3,4.4-46.6-0.5c-4.4-4.8-6.6-38.6-1.5-38.6c7.5,0,38.7,0,42.2,0
			c8.2,0,17.5,3.1,18.2,6C109.4,90.3,102,112.8,96.4,120.5z M183.2,120.1c-4.4,4.8-45,2.7-46.6,0.5c-5.6-7.7-12.9-30.2-12.3-33.1
			c0.7-2.9,10-6,18.2-6c3.5,0,34.9,0,42.4,0C190,81.5,187.5,115.2,183.2,120.1z"/>
		<path class="st11" d="M90.5,79.5c-3.5,0-34.7,0-42.2,0c-5.1,0-2.9,33.8,1.5,38.6c4.4,4.8,45,2.7,46.6,0.5
			c5.6-7.7,12.9-30.2,12.3-33.1C108,82.6,98.7,79.5,90.5,79.5z"/>
		<path class="st12" d="M184.9,79.5c-7.5,0-38.9,0-42.4,0c-8.2,0-17.6,3.1-18.2,6c-0.7,2.9,6.7,25.3,12.3,33.1
			c1.6,2.3,42.3,4.4,46.6-0.5C187.5,113.2,190,79.5,184.9,79.5z"/>
		<path class="st8" d="M143,69.9c-12,0-18.1,2.9-26.9,2.9c-8.7,0-14-2.9-26.1-2.9c-5.1,0-54.7,0-54.7,0l5.4,53.8
			c11.3,5.3,54.8,3.2,58,0.7c8.2-6.4,8-25.8,17.8-24.9c9.8-0.9,9.6,18.4,17.8,24.9c3.2,2.5,46.1,4.7,57.4-0.7l6.2-53.8
			C197.8,69.9,148.1,69.9,143,69.9z M96.4,118.5c-1.6,2.3-42.3,4.4-46.6-0.5c-4.4-4.8-6.6-38.6-1.5-38.6c7.5,0,38.7,0,42.2,0
			c8.2,0,17.5,3.1,18.2,6C109.4,88.3,102,110.8,96.4,118.5z M183.2,118.1c-4.4,4.8-45,2.7-46.6,0.5c-5.6-7.7-12.9-30.2-12.3-33.1
			c0.7-2.9,10-6,18.2-6c3.5,0,34.9,0,42.4,0C190,79.5,187.5,113.2,183.2,118.1z"/>
		<polygon class="st13" points="153,79.5 143.3,120 164.6,121 173,79.5 		"/>
		<polygon class="st14" points="66.8,79.5 56.7,120.3 76.6,120.9 87.2,79.5 		"/>
	</g>
</g>
<g id="Layer_7">
	<polygon class="st15" points="42,91 46.8,76 64.5,72.5 115.7,73.5 177,72.5 183.2,77 186.8,91 186.8,108.6 179.5,122 162.5,124.2 
		147.1,124.2 134.7,118.7 123.2,88.9 112.2,88.9 105.8,102.6 93.3,122.9 80.2,127.6 56.3,120.8 47.8,114 42,95 	"/>
	<path class="st16" d="M184.3,71.7c-6.1-2.8-30.1-4.7-44.8-1.6c-2.9,0.6-20.5,1.4-22.8,1.4c-2.3,0-20.2-0.8-23.1-1.4
		c-14.7-3.1-38.7-1.2-44.8,1.6c-9.8,4.5-11.7,15.4-13.8,16.2c0,2.2,0,7.1,0,8.4c0,0,4,0.5,4.9,4c1.8,7,5.5,15.9,10.2,20.7
		c5.9,6,19.1,7.3,30.1,6.6c16.3-1,21.8-9.8,26.9-21.9c1.7-4.1,4.3-13,9.5-13c5.3,0,7.5,8.9,9.3,13c5.2,12.1,10.7,21,26.9,21.9
		c11,0.7,24.2-0.6,30.1-6.6c4.7-4.8,8.5-13.8,10.2-20.7c0.9-3.5,4.9-4,4.9-4c0-1.3,0-6.2,0-8.4C196,87.1,194,76.1,184.3,71.7z
		 M49.9,80.1c0.5-0.8,1.3-1.5,2.2-2.1h45.2c1.5,0.6,2.8,1.3,3.9,2.1L49.9,80.1C49.9,80.2,49.9,80.2,49.9,80.1z M70.6,124.2h5.2
		C74.1,124.2,72.4,124.2,70.6,124.2z M91.1,120.8C91.1,120.8,91.1,120.8,91.1,120.8l-34.8,0c0,0,0,0-0.1,0c-1.7-1.1-3.1-2.5-4.2-4.1
		h44C94.7,118.3,93.1,119.7,91.1,120.8z M98.8,112.3H49.9c-0.4-1.1-0.8-2.4-1.1-3.7h51.5C99.8,109.9,99.3,111.1,98.8,112.3z
		 M101.6,104.3H47.9c0-0.3-0.1-0.5-0.1-0.8c-0.1-0.7-0.2-1.5-0.2-2.4h54.9C102.1,102.3,101.9,103.4,101.6,104.3z M103.3,96.7H47.4
		c0-1.1,0.1-2.3,0.1-3.4h56.3C103.7,94.4,103.5,95.6,103.3,96.7z M104.3,88.9H47.9c0.2-1.5,0.4-3,0.6-4.3h55.7
		C104.4,85.7,104.4,87.2,104.3,88.9z M135.8,78.1H181c0.9,0.6,1.7,1.3,2.2,2.1c0,0,0,0.1,0.1,0.1h-51.3
		C133,79.4,134.3,78.7,135.8,78.1z M128.9,84.6h55.7c0.3,1.3,0.5,2.8,0.6,4.3h-56.5C128.7,87.2,128.7,85.7,128.9,84.6z M157.2,124.2
		h5.2C160.8,124.2,159,124.2,157.2,124.2z M176.8,120.8C176.8,120.8,176.8,120.8,176.8,120.8l-34.8,0c0,0,0,0-0.1,0
		c-1.9-1.1-3.5-2.5-4.9-4.1h44C180,118.3,178.6,119.7,176.8,120.8z M183.2,112.3h-48.9c-0.6-1.1-1.1-2.4-1.5-3.7h51.5
		C184,109.9,183.6,111.1,183.2,112.3z M185.4,103.5c0,0.3-0.1,0.5-0.1,0.8h-53.8c-0.2-0.9-0.5-2-0.8-3.2h54.9
		C185.6,102,185.5,102.8,185.4,103.5z M129.8,96.7c-0.2-1.1-0.4-2.3-0.6-3.4h56.3c0.1,1.2,0.1,2.3,0.1,3.4H129.8z"/>
</g>
<g id="Layer_6">
	<g>
		<path class="st17" d="M126.2,40.2c0,0-1-18.3-4.8-24.4C117.2,9,106.8,8,106.8,8s0.6-6.1-2.8-5.9s-9.1-0.2-10.5,0.8
			s-1.1,6.2-1.1,6.2S83.7,10.4,81,20.2c-1.3,4.5-1.1,21.5-1.1,21.5L126.2,40.2z"/>
		<path class="st18" d="M91.4,21.9C95.5,7.6,106.8,8,106.8,8s0.6-6.1-2.8-5.9s-9.1-0.2-10.5,0.8s-1.1,6.2-1.1,6.2S83.7,10.4,81,20.2
			c-1.3,4.5-1.1,21.5-1.1,21.5S87.2,36.2,91.4,21.9z"/>
		<path class="st17" d="M79.8,37.1c-2.7,1.5-3,3.4-1.5,8.2c0.8,2.6,2.1,4,3.2,4.7c0.8,0.6,14.2,1.9,26.4,1
			c15.7-1.1,18.4-6.8,19.5-7.1s1.1-3.1,1.1-6.9s0-5.3-2.6-6.1c-3.9,2.1-7,6.2-21.5,8.2C86.4,41.8,82.8,39.2,79.8,37.1z"/>
	</g>
	<g class="st19">
		<circle class="st18" cx="80" cy="54.3" r="2.2"/>
		<circle class="st18" cx="86.1" cy="55.8" r="1.2"/>
		<circle class="st18" cx="81.2" cy="60.6" r="1.4"/>
		<circle class="st18" cx="74.3" cy="58.1" r="1.2"/>
		<circle class="st18" cx="74.8" cy="52.2" r="0.8"/>
		<circle class="st18" cx="66.8" cy="58.4" r="1.5"/>
		<circle class="st18" cx="70" cy="54.3" r="0.9"/>
	</g>
	<g class="st19">
		<circle class="st18" cx="132.4" cy="49" r="2.2"/>
		<circle class="st18" cx="126.3" cy="50.4" r="1.2"/>
		<circle class="st18" cx="131.2" cy="55.3" r="1.4"/>
		<circle class="st18" cx="138.1" cy="52.8" r="1.2"/>
		<circle class="st18" cx="137.6" cy="46.9" r="0.8"/>
		<circle class="st18" cx="145.6" cy="53.1" r="1.5"/>
		<circle class="st18" cx="142.4" cy="49" r="0.9"/>
	</g>
</g>
</svg>
