<?xml version="1.0" encoding="utf-8"?>
<!-- Generator: Adobe Illustrator 19.2.1, SVG Export Plug-In . SVG Version: 6.00 Build 0)  -->
<svg version="1.1" id="Layer_1" xmlns="http://www.w3.org/2000/svg" xmlns:xlink="http://www.w3.org/1999/xlink" x="0px" y="0px"
	 viewBox="0 0 231.3 276.5" style="enable-background:new 0 0 231.3 276.5;" xml:space="preserve">
<style type="text/css">
	.st0{fill:#BFD880;}
	.st1{fill:#AABC6F;}
	.st2{fill:#3C0500;}
	.st3{fill:#FFFFFF;}
	.st4{fill:#A6A8AB;}
	.st5{opacity:0.11;fill:#2D2D2D;enable-background:new    ;}
	.st6{fill:#C55640;}
	.st7{fill:#923E2C;}
	.st8{fill:#9E8F72;}
	.st9{fill:#231F20;}
	.st10{fill:#D52D2C;}
	.st11{fill:#C02126;}
	.st12{fill:#52C0AC;}
	.st13{opacity:0.17;}
</style>
<g id="head">
	<g>
		<g>
			<path class="st0" d="M114.8,39.2c51,0,84.3,30.6,84.3,76.3s-33.3,89.3-84.3,89.3s-80.9-37-80.9-82.8S63.7,39.2,114.8,39.2z"/>
			<path class="st1" d="M199.1,120.2c-8.2,69.8-61.4,86.8-84.3,83.6c-51,0-79.8-36.1-79.8-81.8C75.9,159.5,194.8,137.5,199.1,120.2z
				"/>
			<g>
				<g>
					<path class="st2" d="M85,162c0,0,23.6,6.3,49.3,0.8s28.4,0.3,28.3,4.4c-0.1,7.3-7.9,13.6-25.7,15.5
						c-17.7,1.9-63.8,5.1-66.6-13.8C68.9,159.8,81,161.2,85,162z"/>
					<g>
						<path class="st3" d="M88.2,162.8c0,0-1.1,7,6.8,7.5s6.6-5.6,6.6-5.6L88.2,162.8z"/>
						<path class="st3" d="M108,164.6c0,0-1.1,7,6.8,7.5s6.7-7.4,6.7-7.4L108,164.6z"/>
						<path class="st3" d="M127.8,163.5c0,0-1.1,7,6.8,7.5s6.8-9.5,6.8-9.5L127.8,163.5z"/>
						<path class="st3" d="M134.3,184.7c0,0,1.1-7-6.8-7.5s-6.7,7.4-6.7,7.4L134.3,184.7z"/>
						<path class="st4" d="M115.8,170.6c-4.5-0.3-6.1-2.6-6.6-4.7c4.4,0.8,12.4-0.2,12.4-0.2s0-0.5-0.1-1l-12.5-0.1h-1
							c0,0-1.1,7,6.8,7.5c3.7,0.2,5.4-1.4,6.1-3.1C119.9,170,118.3,170.8,115.8,170.6z"/>
						<path class="st4" d="M101.7,165.8c0.1-0.7-0.1-1-0.1-1c-3.3-0.2-12.3-1.7-12.3-1.7l-1-0.1c0,0-1.1,7,6.8,7.5
							c4.2,0.3,5.8-1.3,6.4-2.9c-1,0.9-2.6,1.5-5.3,1.4c-4.6-0.3-6.1-2.8-6.6-4.8l0,0C93.6,165.4,101.7,165.8,101.7,165.8z"/>
						<path class="st4" d="M135.6,169.5c-4.5-0.3-6.1-2.7-6.6-4.7c6.7-0.6,12.5-2.4,12.5-2.4s0-0.5-0.1-1l-12.6,2l-1,0.1
							c0,0-1.1,7,6.8,7.5c3.2,0.2,4.9-1.4,5.9-3.3C139.5,168.8,137.9,169.6,135.6,169.5z"/>
						<path class="st3" d="M110.1,184.2c0,0,1.1-7-6.8-7.5s-6.9,7.5-6.9,7.5H110.1z"/>
					</g>
					<g>
						<path class="st4" d="M123.5,182.9c-0.6-0.1-2-2.1-1.1-4.2c-2.1,2.2-1.6,5.8-1.6,5.8l13.5,0.1c0,0,0.3-1.4-0.2-2.7
							C134.1,182,128.3,183.9,123.5,182.9z"/>
						<path class="st4" d="M98.5,182.5c-0.6-0.1-1.4-2.1-0.4-4.2c-2.1,2.2-1.7,5.9-1.7,5.9H110c0,0,0.1-0.6,0-1.5
							C110.1,182.7,105.2,184,98.5,182.5z"/>
					</g>
					<path class="st5" d="M159.7,182.1c-5.3,3.4-12.7,5.7-22.2,6.7c-7.3,0.8-18.2,1.7-29.2,1.5c-11.1-0.2-20.2-1.4-27-3.6
						c-4.5-1.5-8.2-3.4-11-5.8c-3.5-3-5.6-6.8-6.2-11.1c-0.1-0.4-0.1-0.7-0.1-1.1c-0.1,1-0.1,2.2,0.1,3.5c0.6,4.3,2.5,8.7,6,11.7
						c2.8,2.4,7.3,5.1,11.9,6.6c6.8,2.2,15.9,3.5,27,3.6c11,0.2,21.9-0.7,29.2-1.5c9.4-1,17.2-4.4,22.4-7.9c5.7-3.7,8-9.2,8.1-15
						c0-0.5,0-0.9,0-1.4C168.3,173.8,165.1,178.6,159.7,182.1z"/>
					<path class="st6" d="M164.9,158.3c-2.9-2.5-7-3.8-12.7-3.8c-5-0.1-11.3,0.7-19.2,2.4c-7.1,1.5-14.8,2.3-22.8,2.1
						c-13.6-0.2-23.5-2.8-23.6-2.8h-0.1h-0.1c-1-0.2-3.7-0.8-6.8-0.8c-5.7-0.1-9.9,1.4-12.7,4.5c-1.6,1.8-3.4,5.1-2.6,10.1
						c0.6,4.3,2.7,8,6.2,11.1c2.8,2.4,6.4,4.4,11,5.8c6.8,2.2,15.9,3.5,27,3.6c11,0.2,21.9-0.7,29.2-1.5c9.4-1,16.9-3.3,22.2-6.7
						c5.7-3.7,8.9-9,9-14.8C168.8,162.8,166.7,159.8,164.9,158.3z M136.9,182.8c-17.7,1.9-63.8,5.1-66.6-13.8
						c-1.4-9.3,10.8-7.7,14.7-6.9c0,0,23.6,6.3,49.3,0.8s28.4,0.3,28.3,4.4C162.5,174.5,154.7,180.9,136.9,182.8z"/>
					<g>
						<path class="st7" d="M134.2,160.8c-25.7,5.5-49.3-0.8-49.3-0.8c-3.9-0.9-15.7-2.3-14.7,6.5c0.9-6.6,11.2-5.3,14.7-4.5
							c0,0,23.6,6.3,49.3,0.8c23.3-5,27.7-0.7,28.3,3.2c0-0.3,0.1-0.6,0.1-0.8C162.7,161.1,159.9,155.2,134.2,160.8z"/>
						<path class="st7" d="M159.7,180.1c-5.3,3.4-12.7,5.7-22.2,6.7c-7.3,0.8-18.2,1.6-29.2,1.5c-11.1-0.2-20.2-1.4-27-3.6
							c-4.5-1.5-8.2-3.4-11-5.8c-3.5-3-5.6-6.8-6.2-11.1c-0.1-0.5-0.1-0.9-0.1-1.4c-0.1,1-0.1,2.2,0.1,3.4c0.6,4.3,2.7,8,6.2,11.1
							c2.8,2.4,6.4,4.4,11,5.8c6.8,2.2,15.9,3.5,27,3.6c11,0.2,21.9-0.7,29.2-1.5c9.4-1,16.9-3.3,22.2-6.7c5.7-3.7,8.9-9,9-14.8
							c0-0.4,0-0.7,0-1.1C168.3,171.8,165.1,176.6,159.7,180.1z"/>
					</g>
					<g>
						<path class="st7" d="M75.7,156.8c0,0,0.2,0.2,0.4,0.5c0.2,0.3,0.5,0.8,0.7,1.2c0.2,0.5,0.4,0.9,0.6,1.3
							c0.1,0.4,0.2,0.6,0.2,0.6s-0.2-0.2-0.4-0.5c-0.2-0.3-0.5-0.8-0.7-1.2c-0.2-0.5-0.4-0.9-0.6-1.3
							C75.8,157.1,75.7,156.8,75.7,156.8z"/>
						<path class="st7" d="M90.7,158.4c0,0,0.1,0.3,0.1,0.7s0.1,1,0.1,1.5s0,1.1-0.1,1.5c0,0.4-0.1,0.7-0.1,0.7s-0.1-0.3-0.1-0.7
							s-0.1-1-0.1-1.5s0-1.1,0.1-1.5C90.6,158.8,90.7,158.4,90.7,158.4z"/>
						<path class="st7" d="M116.4,159.9c0,0,0.1,0.2,0.1,0.6s0.1,0.8,0.1,1.3s0,1-0.1,1.3c0,0.4-0.1,0.6-0.1,0.6s-0.1-0.2-0.1-0.6
							s-0.1-0.8-0.1-1.3s0-1,0.1-1.3C116.3,160.1,116.4,159.9,116.4,159.9z"/>
						<path class="st7" d="M140.9,156.8c0,0,0,0.3,0,0.6c0,0.4-0.1,0.9-0.2,1.4c-0.1,0.5-0.2,1-0.3,1.4s-0.2,0.6-0.2,0.6
							s0-0.3,0-0.6c0-0.4,0.1-0.9,0.2-1.4c0.1-0.5,0.2-1,0.3-1.4C140.8,157.1,140.9,156.8,140.9,156.8z"/>
						<path class="st7" d="M161.1,157.3c0,0-0.1,0.2-0.3,0.6c-0.2,0.4-0.5,0.8-0.8,1.2s-0.6,0.9-0.9,1.2c-0.3,0.3-0.4,0.5-0.4,0.5
							s0.1-0.3,0.3-0.6c0.2-0.4,0.5-0.8,0.8-1.3c0.3-0.4,0.6-0.9,0.9-1.2C160.9,157.5,161.1,157.3,161.1,157.3z"/>
					</g>
				</g>
			</g>
			<g>
				<g>
					<path class="st8" d="M67.7,255.6c-22-30.1-19.1-68-18-103.2v-0.1c0,0,0-0.1,0-0.2c0-0.1-0.1-0.1-0.1,0c0,0,0,0,0,0.1
						c-0.3-0.2-0.7-0.2-1-0.2c-0.9-0.1-1.9-0.2-2.8-0.3c-1.6-0.2-3.4-0.3-5-0.7c-0.1,0-0.2,0.1-0.1,0.2c-2.1,9.5-3.3,19.3-4.6,28.9
						c-1.3,10.2-2.2,20.5-2.1,30.8c0.1,21.9,5.1,44.6,16.8,63.4c0,0.1,0.1,0.1,0.2,0.1c0.5-0.2,0.9-0.4,1.4-0.6
						c0.4-0.2,0.8-0.3,1.2-0.5c0.1,0.1,0.3,0,0.3-0.1l0,0l0,0c0.1-0.1,0.1-0.2,0-0.2c-0.1-0.7-0.5-1.4-0.8-2
						c-0.4-0.9-0.8-1.9-0.9-2.9c0.4-0.1,0.7-0.4,1.1-0.6c0.3-0.2,0.7-0.3,1-0.4c0.2,0.8,0.7,1.4,1.2,2c0.8,0.9,1.7,1.7,2.4,2.7
						c-0.1,0.2,0.1,0.4,0.3,0.3c0,0,0.1,0,0.1-0.1c-0.1,0.1-0.1,0.1,0.1,0c0.1-0.1,0.3-0.1,0.4-0.1c0.3-0.1,0.7-0.3,1-0.5
						c0.4-0.2,0.9-0.4,1.2-0.7c0.1,0,0.2-0.1,0.1-0.2c-0.6-2.2-2.4-4-3.5-5.9c0.3-0.1,0.5-0.4,0.7-0.5s0.5-0.2,0.7-0.4
						c0.4,0.9,1.3,1.5,2,2.1c0.9,0.7,2,1.7,3.1,2.2c0.1,0,0.2,0,0.2,0c0.5-0.4,0.8-1.1,1.2-1.6c0.2-0.3,0.4-0.5,0.6-0.8
						c0,0,0.1-0.1,0.1-0.2c0.2,0,0.3-0.1,0.2-0.3V265c0,0,0,0-0.1,0c-1-1.2-2.1-2.2-3.1-3.3c-0.7-0.8-1.3-1.8-1.7-2.8
						c-0.4-1.2,0.2-2,0.9-2.8c0.6,1.4,2.1,2.2,3.4,2.8c0,0,0,0,0,0.1c0,0.2,0.2,0.2,0.3,0.1c0.5-0.4,0.7-1,0.9-1.5
						c0.3-0.6,0.7-1.1,1-1.7C67.7,255.7,67.8,255.7,67.7,255.6z M58.1,271.6C58.1,271.6,58,271.6,58.1,271.6
						C58,271.6,58.1,271.6,58.1,271.6L58.1,271.6z M66.2,257c-0.3,0.5-0.6,1.1-0.8,1.7c-0.5-0.5-1-0.9-1.5-1.4
						c-0.6-0.5-1.1-1.2-1.7-1.6c-0.1-0.1-0.3,0-0.3,0.1c-4.6,1.5,1,7.7,3.5,9.3c-0.2,0.1-0.3,0.3-0.5,0.5c-0.4,0.5-1,1.2-1.2,1.8
						c-0.6-0.7-1.5-1.2-2.2-1.8c-1-0.7-1.8-1.5-2.8-2.2c0-0.1,0-0.1-0.1-0.1c-0.3-0.1-0.8,0.1-1,0.2c-0.3,0.1-0.7,0.4-0.7,0.8v0.1
						c0,0.9,0.8,1.9,1.2,2.7c0.7,1.1,1.3,2.3,2.2,3.2c-0.6,0-1.3,0.4-1.8,0.6c-0.2,0.1-0.5,0.2-0.7,0.4c-0.3-0.8-0.7-1.4-1.2-2
						c-0.7-0.9-1.4-1.9-2.3-2.7c-0.1-0.1-0.2-0.1-0.3,0c-0.8-0.2-1.9,0.5-2.3,1.1c0,0,0,0,0,0.1l0,0l0,0l0,0
						c-0.3,0.9,0.1,1.9,0.4,2.7c0.3,0.8,0.6,1.6,1.1,2.3c-0.4,0.1-0.8,0.2-1.1,0.4c-0.4,0.2-0.9,0.4-1.2,0.7
						c-5.3-10.5-9.9-21-12.7-32.5c-2.5-10.3-3.5-21-3.5-31.6c0-10,0.9-19.9,2.1-29.8c1.2-9.6,3.1-19.2,4-28.9
						c0.3,0.2,8.5,1.1,8.8,0.9c-1.8,18.1-2.3,37-0.3,55.1c1.9,17,6.6,35.3,18,48.5C66.9,256,66.5,256.5,66.2,257z"/>
					<path class="st1" d="M49.7,151.8c-0.4-0.1-8.4-1.2-8.9-1c-0.8,9.7-2.7,19.5-3.9,29.2c-1.2,9.9-2.2,19.9-2.1,29.8
						c0,10.6,1,21.2,3.5,31.6c2.8,11.5,7.4,22,12.7,32.5c0.3-0.3,0.7-0.5,1.2-0.7c0.3-0.1,0.7-0.3,1.1-0.4c-0.5-0.7-0.8-1.6-1.1-2.3
						c-0.3-0.8-0.7-1.8-0.4-2.7l0,0l0,0l0,0c0,0,0,0,0-0.1c0.5-0.6,1.5-1.3,2.3-1.1c0.1-0.1,0.2-0.1,0.3,0c0.8,0.8,1.5,1.8,2.3,2.7
						c0.5,0.6,0.9,1.3,1.2,2c0.2-0.2,0.5-0.3,0.7-0.4c0.5-0.2,1.2-0.6,1.8-0.6c-0.9-0.9-1.6-2.1-2.2-3.2c-0.5-0.7-1.2-1.7-1.2-2.7
						v-0.1c0-0.4,0.4-0.7,0.7-0.8s0.7-0.3,1-0.2c0.1,0,0.1,0.1,0.1,0.1c1,0.7,1.8,1.5,2.8,2.2c0.7,0.5,1.7,1,2.2,1.8
						c0.2-0.7,0.8-1.3,1.2-1.8c0.1-0.2,0.3-0.4,0.5-0.5c-2.4-1.6-8-7.8-3.5-9.3c0-0.1,0.2-0.2,0.3-0.1c0.6,0.5,1.1,1.1,1.7,1.6
						c0.5,0.4,1,0.9,1.5,1.4c0.1-0.6,0.5-1.2,0.8-1.7s0.6-1,1.1-1.4c-11.4-13.2-16.1-31.5-18-48.5C47.3,189,47.9,169.9,49.7,151.8z"
						/>
				</g>
				<g>
					<path class="st8" d="M161.9,255.6c0.3,0.6,0.7,1.1,1,1.7c0.3,0.5,0.5,1.1,0.9,1.5c0.1,0.1,0.3,0,0.3-0.1c0,0,0,0,0-0.1
						c1.3-0.7,2.7-1.4,3.4-2.8c0.8,0.8,1.4,1.6,0.9,2.8c-0.4,1-1,2-1.7,2.8c-1,1.2-2.2,2.2-3.1,3.3c0,0,0,0-0.1,0v0.1
						c-0.1,0.1,0,0.3,0.2,0.3c0,0.1,0.1,0.1,0.1,0.2c0.2,0.3,0.4,0.5,0.6,0.8c0.4,0.5,0.7,1.2,1.2,1.6c0,0.1,0.1,0.1,0.2,0.1
						c1.1-0.5,2.1-1.5,3.1-2.2c0.7-0.6,1.7-1.2,2-2.1c0.2,0.2,0.5,0.3,0.7,0.4c0.3,0.1,0.5,0.4,0.7,0.5c-1.1,1.9-2.9,3.8-3.5,5.9
						c0,0.1,0,0.2,0.1,0.2c0.3,0.3,0.8,0.6,1.2,0.7c0.3,0.2,0.6,0.3,1,0.5c0.1,0.1,0.3,0.1,0.4,0.1c0.2,0.1,0.1,0.1,0.1,0
						c0,0,0.1,0,0.1,0.1c0.2,0.1,0.3-0.2,0.3-0.3c0.7-0.9,1.7-1.8,2.4-2.7c0.5-0.6,1-1.2,1.2-2c0.3,0.1,0.7,0.2,1,0.4
						c0.3,0.2,0.7,0.5,1.1,0.6c-0.1,1-0.5,2-0.9,2.9c-0.3,0.6-0.7,1.3-0.8,2c-0.1,0-0.1,0.1,0,0.2l0,0l0,0c0,0.1,0.2,0.2,0.3,0.1
						c0.4,0.2,0.8,0.4,1.2,0.5c0.5,0.2,0.9,0.4,1.4,0.6c0.1,0,0.1,0,0.2-0.1c11.7-18.7,16.7-41.5,16.8-63.4
						c0-10.3-0.8-20.6-2.1-30.8c-1.2-9.7-2.5-19.4-4.6-28.9c0.1-0.1,0-0.3-0.1-0.2c-1.6,0.5-3.4,0.5-5,0.7c-0.9,0.1-1.9,0.2-2.8,0.3
						c-0.3,0-0.8,0-1,0.2c0,0,0,0,0-0.1s-0.1-0.1-0.1,0s0,0.1,0,0.2v0.1c1.1,35.2,4,73.2-18,103.2
						C161.7,255.5,161.8,255.6,161.9,255.6z M171.5,271.5L171.5,271.5L171.5,271.5L171.5,271.5z M162.2,255.5
						c11.4-13.2,16.1-31.5,18-48.5c2-18.1,1.5-37-0.3-55.1c0.4,0.2,8.5-0.7,8.8-0.9c0.8,9.7,2.7,19.3,4,28.9
						c1.2,9.9,2.2,19.9,2.1,29.8c0,10.6-1,21.2-3.5,31.6c-2.8,11.5-7.4,22-12.7,32.5c-0.3-0.3-0.7-0.5-1.2-0.7
						c-0.3-0.1-0.7-0.3-1.1-0.4c0.5-0.7,0.8-1.6,1.1-2.3c0.3-0.8,0.7-1.8,0.4-2.7l0,0l0,0l0,0c0,0,0,0,0-0.1
						c-0.5-0.6-1.5-1.3-2.3-1.1c-0.1-0.1-0.2-0.1-0.3,0c-0.8,0.8-1.5,1.8-2.3,2.7c-0.5,0.6-0.9,1.3-1.2,2c-0.2-0.2-0.5-0.3-0.7-0.4
						c-0.5-0.2-1.2-0.6-1.8-0.6c0.9-0.9,1.6-2.1,2.2-3.2c0.5-0.7,1.2-1.7,1.2-2.7v-0.1c0-0.4-0.4-0.7-0.7-0.8s-0.7-0.3-1-0.2
						c-0.1,0-0.1,0.1-0.1,0.1c-1,0.7-1.8,1.5-2.8,2.2c-0.7,0.5-1.7,1-2.3,1.8c-0.2-0.7-0.7-1.3-1.2-1.8c-0.1-0.2-0.3-0.4-0.5-0.5
						c2.4-1.6,8-7.8,3.5-9.3c0-0.1-0.2-0.2-0.3-0.1c-0.6,0.5-1.1,1.1-1.7,1.6c-0.5,0.4-1,0.9-1.5,1.4c-0.1-0.6-0.5-1.2-0.8-1.7
						C163,256.3,162.7,255.8,162.2,255.5z"/>
					<path class="st1" d="M179.9,151.8c0.4-0.1,8.4-1.3,8.9-1c0.8,9.7,2.7,19.5,3.9,29.2c1.2,9.9,2.2,19.9,2.1,29.8
						c0,10.6-1,21.2-3.5,31.6c-2.8,11.5-7.4,22-12.7,32.5c-0.3-0.3-0.7-0.5-1.2-0.7c-0.3-0.1-0.7-0.3-1.1-0.4
						c0.5-0.7,0.8-1.6,1.1-2.3c0.3-0.8,0.7-1.8,0.4-2.7l0,0l0,0l0,0c0,0,0,0,0-0.1c-0.5-0.6-1.5-1.3-2.3-1.1c-0.1-0.1-0.2-0.1-0.3,0
						c-0.8,0.8-1.5,1.8-2.3,2.7c-0.5,0.6-0.9,1.3-1.2,2c-0.2-0.2-0.5-0.3-0.7-0.4c-0.5-0.2-1.2-0.6-1.8-0.6c0.9-0.9,1.6-2.1,2.2-3.2
						c0.5-0.7,1.2-1.7,1.2-2.7v-0.1c0-0.4-0.4-0.7-0.7-0.8c-0.3-0.1-0.7-0.3-1-0.2c-0.1,0-0.1,0.1-0.1,0.1c-1,0.7-1.8,1.5-2.8,2.2
						c-0.7,0.5-1.7,1-2.3,1.8c-0.2-0.7-0.7-1.3-1.2-1.8c-0.1-0.2-0.3-0.4-0.5-0.5c2.4-1.6,8-7.8,3.5-9.3c0-0.1-0.2-0.2-0.3-0.1
						c-0.6,0.5-1.1,1.1-1.7,1.6c-0.5,0.4-1,0.9-1.5,1.4c-0.1-0.6-0.5-1.2-0.8-1.7s-0.6-1-1.1-1.4c11.4-13.2,16.1-31.5,18-48.5
						C182.2,188.8,181.6,169.8,179.9,151.8z"/>
				</g>
			</g>
		</g>
	</g>
</g>
<g id="Layer_3">
	<g>
		<g>
			<g>
				<g>
					<path class="st1" d="M164.6,99.1c0,0-5.5,7.7-11.5,0.9c0,0-0.1,7.2,5.8,7.2C164.7,107.2,164.6,99.1,164.6,99.1z"/>
					<ellipse class="st9" cx="158.8" cy="99.2" rx="5.8" ry="5.1"/>
					<ellipse class="st3" cx="156.6" cy="96.8" rx="1.8" ry="1.6"/>
					<ellipse class="st3" cx="154.5" cy="99.2" rx="0.8" ry="0.7"/>
				</g>
				<g>
					<path class="st1" d="M70.5,99.2c0,0,5.5,7.7,11.5,0.9c0,0,0.1,7.2-5.8,7.2C70.4,107.3,70.5,99.2,70.5,99.2z"/>
					<ellipse class="st9" cx="76.3" cy="99.2" rx="5.8" ry="5.1"/>
					<ellipse class="st3" cx="74.1" cy="96.8" rx="1.8" ry="1.6"/>
					<ellipse class="st3" cx="72" cy="99.2" rx="0.8" ry="0.7"/>
				</g>
			</g>
		</g>
	</g>
</g>
<g>
	<path class="st10" d="M50,72.4c0,0-35.6-1.4-42.2,18.5C7.8,90.9,38.1,101.5,50,72.4z"/>
	<path class="st10" d="M51.9,75.3c0,0-20.5-29.1-40.3-22.3C11.5,53,21.5,83.6,51.9,75.3z"/>
	<path class="st10" d="M165.8,52c0,0-16.6-3.7-48-3.7c-31.4,0-51.2,4.9-51.2,4.9C50,62.5,38.3,91.4,38.3,91.4
		c13.1-1.6,37.3-4.6,79.5-4.6s61,2.6,78.3,4.6C196.1,91.4,187.9,64.7,165.8,52z"/>
	<g>
		<g>
			<g>
				<path class="st11" d="M61,59.3c-0.4,0-0.8-0.3-0.8-0.7c-0.1-0.5,0.2-0.9,0.7-1c0.6-0.1,15.7-2.9,24.9-2.9c0.5,0,0.9,0.4,0.9,0.9
					s-0.4,0.9-0.9,0.9c-9.1,0-24.5,2.8-24.6,2.8C61.1,59.3,61.1,59.3,61,59.3z"/>
				<path class="st11" d="M69,76.1H47.4c-0.5,0-0.9-0.4-0.9-0.9c0-0.5,0.4-0.9,0.9-0.9H69c0.5,0,0.9,0.4,0.9,0.9
					C69.9,75.7,69.5,76.1,69,76.1z"/>
				<path class="st11" d="M65.1,85.4c-9.2,0-21.6-1-21.7-1c-0.5,0-0.8-0.5-0.8-0.9c0-0.5,0.5-0.8,0.9-0.8c0.1,0,12.4,1,21.5,1
					c0.5,0,0.9,0.4,0.9,0.9S65.6,85.4,65.1,85.4z"/>
				<path class="st11" d="M54,67.7c-0.4,0-0.8-0.3-0.9-0.8c-0.1-0.5,0.3-0.9,0.7-1c0.1,0,10.1-1.3,19.3-1.3c0.5,0,0.9,0.4,0.9,0.9
					c0,0.5-0.4,0.9-0.9,0.9c-9.1,0-19,1.2-19.1,1.3C54.1,67.7,54.1,67.7,54,67.7z"/>
			</g>
			<g>
				<path class="st11" d="M173.6,59.3c-0.1,0-0.1,0-0.2,0c-0.2,0-15.6-2.8-24.6-2.8c-0.5,0-0.9-0.4-0.9-0.9s0.4-0.9,0.9-0.9
					c9.2,0,24.3,2.7,24.9,2.9c0.5,0.1,0.8,0.5,0.7,1C174.3,59.1,174,59.3,173.6,59.3z"/>
				<path class="st11" d="M187.1,75.4h-21.6c-0.5,0-0.9-0.4-0.9-0.9s0.4-0.9,0.9-0.9h21.6c0.5,0,0.9,0.4,0.9,0.9
					S187.6,75.4,187.1,75.4z"/>
				<path class="st11" d="M169.9,85.4c-0.5,0-0.9-0.4-0.9-0.9s0.4-0.9,0.9-0.9c9.1,0,21.4-1,21.5-1c0.5,0,0.9,0.3,0.9,0.8
					c0,0.5-0.3,0.9-0.8,0.9C191.5,84.3,179.1,85.4,169.9,85.4z"/>
				<path class="st11" d="M181.2,68.1c0,0-0.1,0-0.1,0c-0.1,0-10-1.3-19.1-1.3c-0.5,0-0.9-0.4-0.9-0.9s0.4-0.9,0.9-0.9
					c9.2,0,19.2,1.3,19.3,1.3c0.5,0.1,0.8,0.5,0.7,1C182,67.7,181.7,68.1,181.2,68.1z"/>
			</g>
			<path class="st11" d="M44,75.2c-0.2,0-0.4-0.1-0.6-0.2c-0.1-0.1-11-9.5-14.9-11.2c-0.4-0.2-0.6-0.7-0.4-1.1
				c0.2-0.4,0.7-0.6,1.1-0.4c4.1,1.9,14.9,11.1,15.3,11.5c0.4,0.3,0.4,0.9,0.1,1.2C44.5,75.1,44.2,75.2,44,75.2z"/>
			<path class="st11" d="M21.3,86.8c-0.4,0-0.8-0.3-0.9-0.7c-0.1-0.5,0.3-0.9,0.7-1c6.6-0.9,20.1-8.4,20.2-8.5
				c0.4-0.2,0.9-0.1,1.2,0.3c0.2,0.4,0.1,0.9-0.3,1.2c-0.6,0.3-14,7.8-20.8,8.7C21.3,86.8,21.3,86.8,21.3,86.8z"/>
		</g>
	</g>
</g>
<g>
	<path class="st12" d="M198.6,89.4c-22.6-3.9-44.6-3.5-71.2,1.1l-0.6,0.1c-3.1,0.5-7.2,1.2-9.8,1.2c-2.7,0-6.7-0.6-9.8-1.2l-0.6-0.1
		C80,85.9,58,85.6,35.4,89.4c-1.2,0.2-1.9,1-1.8,1.9l1.6,7.9c0.1,0.5,0.5,1,1.1,1.2c0.6,0.3,1.3,0.3,2,0.1c0.9-0.3,1.6-0.3,2.2,0
		c0.6,0.3,1,1,1.1,1.8c0.5,9.7,3.1,16.3,8,20.8c5.2,4.7,13.2,6.9,24.4,6.9c0,0,0,0,0,0c22.3,0,31-11.9,36.8-19.7
		c0.8-1.1,1.6-2.1,2.3-3c0,0,0.1-0.1,0.1-0.1c1.3-1.9,2.8-2.6,3.7-2.6c0,0,0,0,0,0c0,0,0.1,0,0.1,0s0.1,0,0.1,0c0,0,0,0,0,0
		c1,0,2.4,0.7,3.7,2.6c0,0,0.1,0.1,0.1,0.1c0.7,0.9,1.5,1.9,2.3,3c5.8,7.9,14.5,19.7,36.8,19.7c0,0,0,0,0,0
		c11.2,0,19.2-2.3,24.4-6.9c5-4.4,7.5-11,8-20.8c0-0.8,0.5-1.5,1.1-1.8c0.5-0.3,1.2-0.3,2.2,0c0.7,0.2,1.4,0.1,2-0.1
		c0.6-0.3,1-0.7,1.1-1.2l1.6-7.9C200.6,90.5,199.8,89.6,198.6,89.4z"/>
	<path class="st12" d="M194.6,97c-1.3,0-2.5,0.2-3.6,0.8c-1.9,0.9-3,2.6-3.1,4.5c-0.5,8.9-2.7,14.9-7,18.7
		c-4.3,3.9-10.9,5.7-20.8,5.7c0,0,0,0,0,0c-8.6,0-15.7-2-21.5-6c-5.1-3.5-8.4-8-11.3-11.9c-0.8-1.1-1.6-2.1-2.3-3.1
		c-2.8-4.1-6.4-4.5-7.9-4.4c0,0,0,0,0,0c-1.5,0-5.1,0.4-7.9,4.4c-0.8,1-1.5,2-2.3,3.1c-2.9,3.9-6.2,8.4-11.3,11.9
		c-5.8,4-12.9,6-21.5,6c-9.9,0-16.5-1.8-20.8-5.7c-4.3-3.8-6.5-9.8-7-18.7c-0.1-1.9-1.3-3.6-3.1-4.5c-1.1-0.5-2.3-0.8-3.6-0.8
		l-0.9-4.5c21.2-3.4,42-2.9,67.1,1.4l0.5,0.1c3.3,0.6,8.2,1.3,10.9,1.3c2.8,0,7.6-0.7,10.9-1.3l0.5-0.1c25.1-4.3,45.9-4.8,67.1-1.4
		L194.6,97z"/>
	<path class="st13" d="M96,96.8c-8.3-1.7-16.4-2.5-25-2.5c-5.9,0-11.9,0.4-18,1.2c-1,0.1-1.7,0.7-1.9,1.4
		c-0.1,0.5-2.7,13.5,6.1,21.1c4,3.5,9.7,5.2,16.9,5.2c0,0,0,0,0,0c18,0,24.6-11.2,27.1-15.4c0.3-0.5,2.6-4.4,0.6-7.6
		C101.1,99.1,99.5,97.5,96,96.8z M60,100.2c-0.1,1.6-0.2,3.1-0.1,4.4c0,0.9-1,1.7-2.2,1.8c0,0,0,0-0.1,0c-1.2,0-2.3-0.7-2.3-1.7
		c-0.1-1.5,0-3.1,0.1-4.7c0.1-0.9,1.2-1.7,2.5-1.6C59.1,98.4,60.1,99.2,60,100.2z"/>
	<path class="st13" d="M138.1,96.8c-3.6,0.7-5.2,2.3-5.9,3.4c-2,3.2,0.3,7.1,0.6,7.6c2.5,4.2,9.1,15.4,27.1,15.4h0
		c7.2,0,12.9-1.8,16.9-5.2c8.8-7.6,6.2-20.5,6.1-21.1c-0.1-0.7-0.9-1.3-1.9-1.4c-6.1-0.8-12.2-1.2-18.1-1.2
		C154.5,94.3,146.3,95.1,138.1,96.8z M159.9,121.5L159.9,121.5L159.9,121.5L159.9,121.5z"/>
</g>
</svg>
