<?xml version="1.0" encoding="utf-8"?>
<!-- Generator: Adobe Illustrator 19.2.1, SVG Export Plug-In . SVG Version: 6.00 Build 0)  -->
<svg version="1.1" id="Layer_1" xmlns="http://www.w3.org/2000/svg" xmlns:xlink="http://www.w3.org/1999/xlink" x="0px" y="0px"
	 viewBox="0 0 499.5 127.5" style="enable-background:new 0 0 499.5 127.5;" xml:space="preserve">
<style type="text/css">
	.st0{fill:#0C0C0C;}
</style>
<g>
	<path class="st0" d="M80.8,23.8c3.6,0,6.6-0.1,8.9-0.3v2.3c-1.9,0.8-3.9,2.3-5.8,4.5s-3.6,5.4-5,9.5l-24.7,67
		c-0.9-0.1-2.3-0.1-4.1-0.1s-3.1,0-4,0.1l-30-73.4c-1-2.6-2.1-4.5-3.5-5.6c-1.3-1.2-2.6-1.8-3.9-1.9v-2.3c4.7,0.2,10.7,0.3,17.9,0.3
		c8,0,13.9-0.1,17.8-0.3v2.3c-2.9,0.1-5.1,0.5-6.3,1.1c-1.3,0.6-1.9,1.7-1.9,3.3c0,1.2,0.5,3.1,1.4,5.5l20.7,52.5l14.4-38.9
		c2.2-6.2,3.3-11,3.3-14.4c0-3.1-0.8-5.4-2.5-6.8s-4.1-2.2-7.4-2.3v-2.3C71.4,23.7,76.3,23.8,80.8,23.8z"/>
	<path class="st0" d="M113.1,100.8c0.5,1.2,1.3,2.1,2.3,2.6c1.1,0.5,2.5,0.7,4.4,0.7v2.5c-7.8-0.3-13-0.5-15.6-0.5
		c-2.5,0-7.9,0.2-16.3,0.5v-2.5c1.9,0,3.4-0.2,4.4-0.7s1.9-1.4,2.3-2.6c0.5-1.2,0.7-2.9,0.7-5.1v-37c0-3.6-0.6-6.3-1.7-7.9
		c-1.1-1.6-3.1-2.4-5.8-2.4v-2.5c2.5,0.2,4.9,0.3,7.3,0.3c6.9,0,12.6-0.5,17.1-1.6v51C112.3,97.9,112.6,99.6,113.1,100.8z"/>
	<path class="st0" d="M135.3,99.8c2.5,3.8,6.1,5.7,10.8,5.7c2.3,0,4.2-0.7,5.9-2.1c1.6-1.4,2.4-3.5,2.4-6.3c0-2.2-0.5-4.1-1.5-5.8
		c-1-1.7-2.2-3.2-3.7-4.6c-1.5-1.3-3.7-3.2-6.7-5.5c-3.6-2.9-6.4-5.3-8.2-6.9c-1.8-1.7-3.4-3.7-4.7-6s-1.9-4.9-1.9-7.9
		c0-3.4,0.9-6.3,2.8-8.7c1.8-2.4,4.3-4.3,7.4-5.6s6.5-1.9,10.1-1.9c3,0,5.7,0.4,8.2,1.1c2.5,0.7,4.4,1.6,5.8,2.5
		c0.8,0.5,1.5,0.8,2.1,0.8c1.5,0,2.4-1.4,2.8-4.3h2.6c-0.3,3.9-0.5,10.8-0.5,20.6h-2.6c-0.7-5.1-2.2-9.4-4.6-12.9
		c-2.4-3.5-5.9-5.2-10.4-5.2c-2.3,0-4.2,0.7-5.7,2s-2.2,3.2-2.2,5.5c0,2.6,0.9,4.9,2.6,6.8c1.8,1.9,3.9,3.7,6.4,5.5s4.3,3.1,5.4,4
		c3.2,2.4,5.8,4.5,7.6,6.3s3.4,3.8,4.6,6.1c1.2,2.3,1.8,4.9,1.8,7.8c0,3.4-1,6.5-3,9.1s-4.7,4.7-8.1,6.1c-3.4,1.4-7.1,2.1-11.2,2.1
		c-4.2,0-7.8-0.8-10.9-2.5c-2.3-1.2-4.2-2-5.5-2.5c-0.2-0.1-0.4-0.1-0.6-0.1c-1.3,0-2.2,1.4-2.8,4.2h-2.6c0.3-4.5,0.5-12.3,0.5-23.4
		h2.6C131.1,90.7,132.8,96,135.3,99.8z"/>
	<path class="st0" d="M209.2,49.4c-1.5-1.9-4-2.8-7.2-2.8c-1.5,0-3.1,0.2-4.6,0.7s-2.8,1.2-3.8,2.1c2.2,0.7,3.9,1.9,5.1,3.4
		c1.2,1.5,1.8,3.5,1.8,5.8c0,1.6-0.4,3-1.2,4.3c-0.8,1.3-1.9,2.3-3.4,3s-3.1,1.1-5,1.1c-2.5,0-4.5-0.9-6-2.6
		c-1.5-1.7-2.3-3.9-2.3-6.5c0-4,2.2-7.3,6.5-9.9c4.8-2.6,10.7-4,17.9-4c8,0,13.7,1.8,17.1,5.3c1.6,1.6,2.8,3.7,3.3,6.1
		c0.6,2.4,0.9,5.9,0.9,10.3v31.9c0,1.9,0.2,3.3,0.5,4c0.4,0.8,1,1.2,1.9,1.2c1.3,0,2.7-0.7,4.4-2l1.2,2c-1.8,1.5-3.7,2.6-5.8,3.3
		c-2.1,0.7-4.6,1-7.6,1c-4,0-6.8-0.9-8.6-2.6c-1.8-1.8-2.6-4-2.6-6.9c-1.9,3.2-4.4,5.5-7.5,7.1s-6.4,2.4-9.9,2.4
		c-4.5,0-8-1.2-10.7-3.5s-4-5.6-4-9.8c0-4.1,1.3-7.5,4-10.1c2.7-2.7,6.8-5,12.4-7.1c0.6-0.2,2.6-1,6-2.3s5.8-2.6,7.3-3.9
		s2.2-2.8,2.2-4.4v-9.1C211.6,53.8,210.8,51.3,209.2,49.4z M209.1,73.6c-1.1,0.9-2.7,2-4.8,3.3c-2.5,1.7-4.4,3.7-5.8,5.8
		c-1.4,2.2-2.1,4.8-2.1,8c0,3.1,0.7,5.3,2,6.8s3.1,2.3,5.3,2.3c3.1,0,5.7-1.6,8-4.8V71C211.1,71.8,210.2,72.7,209.1,73.6z"/>
	<path class="st0" d="M300,101.7c1.1,1.6,3.1,2.4,5.8,2.4v2.5c-2.4-0.2-4.9-0.3-7.3-0.3c-6.9,0-12.6,0.6-17.1,1.7V97.3
		c-3.6,7.3-9.9,10.9-18.9,10.9c-5.8,0-10.1-1.5-12.8-4.6c-1.3-1.5-2.2-3.4-2.8-5.8s-0.8-5.6-0.8-9.5V58.7c0-3.6-0.6-6.2-1.7-7.8
		c-1.1-1.6-3.1-2.5-5.8-2.5v-2.5c2.5,0.2,4.9,0.3,7.3,0.3c6.8,0,12.5-0.5,17.1-1.6v48.6c0,3.2,0.5,5.7,1.5,7.4
		c1,1.7,2.8,2.5,5.5,2.5c2.1,0,4-0.6,5.7-1.8c1.7-1.2,3.1-2.8,4.2-4.9c1-2.1,1.5-4.4,1.5-6.9V58.7c0-3.6-0.6-6.2-1.7-7.8
		s-3.1-2.5-5.8-2.5v-2.5c2.5,0.2,4.9,0.3,7.3,0.3c6.8,0,12.5-0.5,17.1-1.6v49.2C298.3,97.4,298.9,100,300,101.7z"/>
	<path class="st0" d="M370.4,101.6c1.1,1.6,3,2.4,5.9,2.4v2.5c-2.5-0.2-4.9-0.3-7.3-0.3c-6.9,0-12.6,0.5-17.1,1.6V97.6
		c-2.6,7.1-7.7,10.6-15.2,10.6c-4.8,0-9-1.2-12.6-3.5s-6.4-5.9-8.4-10.7c-2-4.8-3-10.9-3-18.1c0-6.9,1.1-12.7,3.3-17.4
		c2.2-4.7,5.3-8.3,9.3-10.7s8.5-3.6,13.6-3.6c5.8,0,10.1,1.5,13,4.4V28.8c0-3.6-0.6-6.3-1.7-7.9s-3.1-2.4-5.8-2.4V16
		c2.5,0.2,4.9,0.3,7.3,0.3c6.9,0,12.6-0.6,17.1-1.7v79C368.8,97.3,369.3,99.9,370.4,101.6z M343.3,47.7c-4.1,0-7.3,2.4-9.6,7.2
		s-3.4,11.9-3.3,21.4c-0.1,18,3.6,27,11.1,27c1.7,0,3.3-0.4,4.8-1.3c1.5-0.8,2.7-2.1,3.8-3.6c1-1.6,1.7-3.4,1.9-5.5V51.7
		C349.9,49,347,47.7,343.3,47.7z"/>
	<path class="st0" d="M406.3,100.8c0.5,1.2,1.3,2.1,2.3,2.6c1.1,0.5,2.5,0.7,4.4,0.7v2.5c-7.8-0.3-13-0.5-15.6-0.5
		c-2.5,0-7.9,0.2-16.3,0.5v-2.5c1.9,0,3.4-0.2,4.4-0.7c1.1-0.5,1.9-1.4,2.3-2.6c0.5-1.2,0.7-2.9,0.7-5.1v-37c0-3.6-0.6-6.3-1.7-7.9
		c-1.1-1.6-3.1-2.4-5.8-2.4v-2.5c2.5,0.2,4.9,0.3,7.3,0.3c6.9,0,12.6-0.5,17.1-1.6v51C405.5,97.9,405.8,99.6,406.3,100.8z"/>
	<path class="st0" d="M469.4,52c5.1,5.1,7.6,13.2,7.6,24.3s-2.5,19.2-7.6,24.3c-5.1,5.1-12.1,7.6-21.1,7.6s-16-2.5-21.1-7.6
		s-7.7-13.2-7.7-24.3s2.6-19.2,7.7-24.3s12.1-7.7,21.1-7.7S464.4,46.9,469.4,52z M440.3,53.9c-2,4.9-3,12.4-3,22.4s1,17.4,3,22.3
		s4.7,7.3,8,7.3c3.4,0,6.1-2.4,8-7.2c2-4.8,3-12.3,3-22.3c0-10.1-1-17.6-3-22.4c-2-4.9-4.7-7.3-8-7.3C445,46.6,442.4,49,440.3,53.9z
		"/>
</g>
</svg>
