<?xml version="1.0" encoding="utf-8"?>
<!-- Generator: Adobe Illustrator 19.2.1, SVG Export Plug-In . SVG Version: 6.00 Build 0)  -->
<svg version="1.1" id="Layer_1" xmlns="http://www.w3.org/2000/svg" xmlns:xlink="http://www.w3.org/1999/xlink" x="0px" y="0px"
	 viewBox="0 0 499.5 127.5" style="enable-background:new 0 0 499.5 127.5;" xml:space="preserve">
<style type="text/css">
	.st0{fill:#353535;}
</style>
<path class="st0" d="M427.1,115.6H65.5L56.7,13.3l387.3,5l-18.8,53.2L427.1,115.6z M111.8,76.8l-9.1-31.9H89.9l15.7,43.2h12.2
	l15.7-43.2h-12.2L111.8,76.8z M140,88.1h11.6V44.9H140V88.1z M159.7,74.3c0,4.4,1.6,8.1,5,11c3.1,2.8,8.1,4.4,15,4.4
	c6.6,0,11.6-1.3,14.7-4.1c3.1-2.8,4.7-6.3,4.7-10.6c0-3.1-1.3-5.9-3.4-8.1c-2.2-2.2-5.6-3.8-10-4.7c-6.9-1.6-10.6-2.5-11.9-3.1
	c-1.3-0.6-1.6-1.6-1.6-2.8c0-0.9,0.6-1.9,1.6-2.8c0.9-0.6,2.8-1.3,5.3-1.3c3.1,0,5,0.6,6.3,2.2c0.6,0.9,0.9,1.9,1.3,3.4h11.3
	c-0.6-5.3-2.5-9.1-5.9-11.3c-3.4-2.2-7.8-3.1-13.2-3.1c-5.6,0-10,1.6-13.2,4.4C162.5,50.5,161,54,161,58c0,3.4,0.9,5.9,3.1,7.8
	c1.9,1.9,5.3,3.4,10.3,4.7c6.9,1.6,10.6,2.8,11.9,3.4c0.9,0.6,1.6,1.6,1.6,2.8s-0.6,2.2-1.9,3.1c-1.3,0.6-3.1,0.9-5.3,0.9
	c-3.8,0-6.3-0.6-7.8-2.2c-0.9-0.9-1.3-2.2-1.6-4.4H159.7z M220.8,64.6c-9.7,1.3-14.7,5.6-14.7,12.8c0,2.2,0.3,3.8,1.3,5.3
	c0.6,1.6,1.9,2.8,3.1,3.8c1.3,0.9,2.8,1.9,4.4,2.2c1.6,0.3,3.4,0.6,5.3,0.6c3.1,0,5.9-0.6,8.8-1.9c2.5-1.3,5-2.8,7.2-5.3
	c0,0.6,0,1.6,0.3,2.2c0,0.6,0.3,1.3,0.6,1.9c0.3,0.6,0.6,0.9,1.3,1.6c0.6,0.3,1.3,0.6,1.9,0.6c0.6,0.3,1.6,0.3,2.2,0.3
	c0.6,0,1.6,0,2.2-0.3c0.6-0.3,1.3-0.3,1.6-0.6V84c-2.2,0.6-3.4,0.9-4.1,0.3s-0.9-1.6-0.9-3.8V57.7c0-2.5-0.3-4.4-1.3-6.3
	c-0.9-1.6-1.9-3.1-3.1-4.1c-1.3-0.9-3.1-1.9-5-2.2c-1.9-0.3-3.8-0.6-5.9-0.6s-4.4,0.3-6.6,0.6c-1.9,0.6-3.8,1.3-5.3,2.5
	c-1.6,1.3-2.8,2.5-3.8,4.4s-1.6,3.8-1.6,6.3h5c0.3-1.9,0.6-3.4,1.3-4.7c0.6-1.3,1.6-2.2,2.5-2.8c0.9-0.6,2.2-1.3,3.8-1.6
	c1.3-0.3,2.8-0.3,4.7-0.3c3.8,0,6.6,0.9,8.1,2.5c1.6,1.6,2.5,3.8,2.5,6.3c0,0.6,0,1.6-0.3,2.5c-0.3,0.9-0.6,1.6-1.6,1.9
	c-0.9,0.3-1.9,0.6-3.1,0.9c-1.3,0.3-2.5,0.3-3.4,0.6L220.8,64.6z M235.8,72.7c0,2.2-0.3,4.1-1.3,5.6c-0.9,1.6-1.9,2.8-3.4,3.8
	c-1.6,0.9-3.1,1.9-5,2.2c-1.9,0.3-3.8,0.6-5.9,0.6c-1.3,0-2.2,0-3.4-0.3c-1.3-0.3-2.2-0.6-2.8-1.3c-0.9-0.6-1.6-1.6-1.9-2.5
	c-0.3-0.9-0.6-2.2-0.6-3.4c0-2.8,0.9-5,3.1-6.6c2.2-1.3,5-2.2,8.8-2.5c2.2-0.3,4.4-0.3,6.3-0.6c2.2-0.3,4.1-0.9,6.3-1.6V72.7z
	 M281.8,69c0,2.2-0.3,4.4-0.9,6.6c-0.6,2.2-1.6,3.8-2.5,5c-0.9,1.3-2.5,2.5-4.1,3.1c-1.6,0.9-3.4,1.3-5.3,1.3
	c-3.8,0-6.6-0.9-8.1-2.8s-2.5-4.7-2.5-8.5V46.1h-5V74c0,2.2,0.3,4.4,0.6,6.3c0.6,1.9,1.3,3.4,2.5,5c1.3,1.6,2.8,2.5,4.7,3.4
	c1.9,0.9,4.4,1.3,7.2,1.3c1.9,0,3.4-0.3,5-0.6c1.3-0.3,2.5-0.9,3.8-1.6c1.3-0.6,1.9-1.6,2.8-2.2c0.9-0.9,1.6-1.6,2.2-2.5v5h4.7v-42
	h-5V69z M331,53c-1.6-2.5-3.8-4.7-6.6-5.9c-2.8-1.3-5.6-1.9-8.5-1.9c-3.1,0-5.9,0.6-8.5,1.9c-2.5,1.3-4.4,2.8-5.9,5
	c-1.6,1.9-2.8,4.4-3.4,7.2c-0.6,2.8-1.3,5.6-1.3,8.5c0,3.1,0.3,5.9,0.9,8.8s1.9,5,3.4,6.9c1.6,1.9,3.4,3.4,5.9,4.7
	c2.5,1.3,5.3,1.6,8.8,1.6c1.3,0,2.8-0.3,4.1-0.6c1.3-0.3,2.8-0.9,4.1-1.6c1.3-0.6,2.5-1.6,3.8-2.5s1.9-2.2,2.8-3.8h0.3v6.9h5V29.9
	h-5L331,53L331,53z M330,74c-0.6,2.2-1.6,4.1-2.8,5.6c-1.3,1.6-2.8,2.8-4.4,3.8c-1.9,0.9-3.8,1.3-5.9,1.3c-2.2,0-4.1-0.3-5.6-1.3
	c-1.9-0.6-3.1-1.9-4.7-3.1c-1.3-1.3-2.2-3.1-3.1-5c-0.6-1.9-1.3-4.4-1.3-6.9c0-2.5,0-5,0.6-7.5c0.6-2.2,1.6-4.4,2.5-5.9
	c1.3-1.9,2.8-3.1,4.7-4.1c1.9-0.9,4.1-1.6,6.6-1.6c2.2,0,4.1,0.6,5.9,1.6c1.9,0.9,3.1,2.2,4.4,3.8c1.3,1.6,2.2,3.4,2.8,5.6
	c0.6,2.2,0.9,4.4,0.9,6.9C331,69.6,330.7,71.8,330,74z M353.8,88.1v-42h-5v42H353.8z M353.8,34.5v-5h-5v5H353.8z M391.1,87.8
	c2.5-0.9,4.4-2.5,6.3-4.4c1.6-1.9,3.1-4.4,4.1-6.9c0.9-2.8,1.3-5.6,1.3-9.1c0-3.1-0.3-5.9-1.3-8.8s-1.9-5-3.8-6.9
	c-1.6-1.9-3.8-3.4-5.9-4.7c-2.5-1.3-5.3-1.9-8.8-1.9c-3.1,0-5.9,0.6-8.5,1.9c-2.5,1.3-4.4,2.8-5.9,4.7c-1.6,1.9-2.8,4.4-3.8,6.9
	c-0.9,2.8-1.3,5.6-1.3,8.8c0,3.8,0.6,6.9,1.6,9.7c0.9,2.8,2.5,5,4.1,6.9c1.9,1.9,3.8,3.1,6.3,4.1c2.5,0.9,5,1.6,7.5,1.6
	C385.8,89.3,388.6,88.7,391.1,87.8z M396.4,73.7c-0.6,2.2-1.3,4.1-2.5,5.6s-2.5,3.1-4.4,4.1c-1.9,0.9-4.1,1.6-6.6,1.6
	c-2.2,0-4.4-0.3-6.3-1.3s-3.1-2.2-4.4-3.8s-2.2-3.4-2.8-5.6c-0.6-2.2-0.9-4.7-0.9-7.2c0-2.2,0.3-4.4,0.9-6.6
	c0.6-2.2,1.3-4.1,2.5-5.6c1.3-1.6,2.5-3.1,4.4-4.1c1.9-0.9,4.1-1.6,6.6-1.6c2.5,0,4.7,0.3,6.6,1.3c1.9,0.9,3.1,2.2,4.4,3.8
	c1.3,1.6,1.9,3.4,2.5,5.6c0.6,2.2,0.9,4.4,0.9,6.9C397.3,69.3,397,71.5,396.4,73.7z"/>
</svg>
