<?xml version="1.0" encoding="utf-8"?>
<!-- Generator: Adobe Illustrator 19.1.0, SVG Export Plug-In . SVG Version: 6.00 Build 0)  -->
<svg version="1.1" id="Layer_1" xmlns="http://www.w3.org/2000/svg" xmlns:xlink="http://www.w3.org/1999/xlink" x="0px" y="0px"
	 viewBox="0 0 710 455" style="enable-background:new 0 0 710 455;" xml:space="preserve">
<style type="text/css">
	.st0{fill:#F2F2F2;}
	.st1{opacity:9.000000e-02;}
	.st2{fill:#333333;}
</style>
<rect x="-46.3" y="-6.7" class="st0" width="805.3" height="468"/>
<g>
	<g class="st1">
		<path class="st2" d="M222.7,305.3c-0.2,0.9-0.9,1.4-1.6,1.5c-2.9,0.6-8.1-5-8-12.7c0.2-27.3,8.1-54.5,8.1-82.1
			c0-5.7-1.6-8.8-2.8-8.7c-10.1,0.5-21,36.5-21.2,51.9c-0.1,6.7,1.6,11.9,5.8,12.9c1.4,0.3,2,1.2,2,1.9c0,0.8-0.8,1.7-2.4,1.8
			c-11.1,0.6-14.8-13.4-14.7-22.5c0.2-16,9.2-48.1,28.2-50.1c7.1-0.7,15.4,3.5,15.3,16.1c-0.2,24.7-4.9,49.7-7.5,74.4
			c9.2-30.1,21.5-60.1,25.8-91.4c0.4-2.4,2.1-3.9,4.4-4.3c3.3-0.6,7.1,1.1,7.1,5.8c0,0.6,0,1.3-0.1,1.9
			C253.6,237.7,232.6,269.8,222.7,305.3z"/>
		<path class="st2" d="M263.4,279.1c-0.1,2.9,1.1,4.6,2.3,3.9c6.3-3.7,9.9-16.3,12.9-24.6c0.8-1.8,1.5-2.9,2.1-3.1
			c0.5-0.2,0.9,0.2,0.9,1.1c0,0.7-0.1,1.4-0.5,2.5c-3.3,11.2-8.4,30.3-19.5,34.9c-4.5,1.9-9.2-1.2-9-11.8
			c0.3-19.3,5.5-39.7,9.8-58.8c0.6-2.6,2.6-4.4,5-5c3.1-0.8,6.7,0.8,6.5,5.3C272.9,241.5,264,260.8,263.4,279.1z M263.6,205.9
			c0-6.1,4.4-15,11.3-16.7c5.1-1.3,7.4,1.4,7.4,5.2c0,5.8-5.1,14.7-13,16.8C265.4,212.3,263.6,209.6,263.6,205.9z"/>
		<path class="st2" d="M268.3,276.7c0-4.4,2.5-11,7-11.4c6.3-13.2,11.6-26.8,16.7-40.5c-1.3-3.3-1.9-6.7-1.9-10.3
			c0-9.2,3.9-17.7,8.6-19.3c3-1,4.6,0.8,4.6,4.6c0,5-2.6,13.7-7.9,24.6c3.8,9.6,9.4,20,9.6,30.2c0.1,4.6-0.9,9.6-3,14.4
			c5-6.2,6.8-12.1,12.3-24.6c0.8-1.8,1.5-2.7,2.1-3c0.5-0.2,0.8,0.2,0.8,1.1c0,0.5-0.1,1.2-0.4,2.1c-4.9,15.6-13.5,33.1-29.7,39.4
			C273.3,289.5,268.3,283.5,268.3,276.7z M278.4,266.1c1.4,1.2,1.3,3.8,1.3,10.8c0,4.6,1.7,6.7,4.4,5.3c7.7-3.8,9.3-17.3,9.1-25.6
			c-0.1-4.5-0.5-13.7-0.9-21.9C288.1,245.5,283.7,255.9,278.4,266.1z"/>
		<path class="st2" d="M347.2,246.2c-0.1,1.8,0.6,2.9,1.8,2.3c2.6-1.2,6.5-9.8,12.4-24.4c0.6-1.6,1.6-2.8,2.3-3.1
			c0.4-0.2,0.8,0,0.8,0.9c0,0.5-0.1,1.3-0.5,2.3c-3.8,11.8-9,27.9-19.3,33.8c-3.4,2-8.5,1.9-8.5-7.8c0-0.6,0-1.5,0.1-2.5
			c-4.1,10.6-8.9,18.5-12.9,20.3c-6.8,3.1-9.7-3.3-9.6-13.6c0.1-18.4,6.8-51.8,25.4-59.7c4.8-2,8.1,2.3,8.4,6.1
			c0.3-0.1,0.5-0.2,0.8-0.3c3.1-1.2,6.9-0.1,6.9,4.5c0,0.6,0,1.3-0.1,1.9C352.2,220,347.7,233.5,347.2,246.2z M340.3,225
			c1.6-8.1,2.4-12.1,4-20c0-2.2-1-4.9-3.4-3.5c-12,6.9-15.9,35.5-16,50.5c0,3.9,0.9,6.2,2.1,5.4C335.5,252.2,337.7,235.5,340.3,225z
			"/>
		<path class="st2" d="M371.1,231.9c-0.1,3.2,1.3,4.8,2.8,3.9c12.3-8.2,14.4-39.8,17.7-55.5c0.9-4.2,3.9-7.1,6.9-8.2
			c2.8-1,5.6,0.1,5.4,2.9c-1.2,15.7-9.8,33.6-10.5,49.9c-0.1,2,0.5,3,1.6,2.5c4.5-2,12.1-20.1,13.5-23.2c0.8-1.7,1.5-2.6,2.1-2.8
			c0.5-0.2,0.9,0,0.9,0.8c0,0.5-0.1,1.2-0.5,2.2c-4.1,11.5-9.9,26.4-20.4,32.1c-3.4,1.8-8.3,1.9-8.5-6.2
			c-3.4,7.8-7.5,13.6-12.6,16.1c-7,3.3-9.6-1-9.4-8.8c0.3-15.9,5.1-32.1,7.8-48.1c0.6-4.1,3.9-7,6.8-8.1c2.8-1,5.4-0.5,5.4,2.4
			c0,0.4,0,0.8-0.1,1.3C376.6,200.3,371.5,216.6,371.1,231.9z"/>
		<path class="st2" d="M441,203.8c-0.1,2.8,0.8,4.3,2.5,3.7c4.4-1.5,9.6-13.4,13-20.3c0.6-1.4,1.6-2.3,2.3-2.5
			c0.5-0.1,0.8,0.2,0.8,0.9c0,0.4-0.1,1.1-0.5,2c-4.3,11-9.3,23.6-20.4,28.3c-4.7,2-7.9-1.8-7.9-8.5c0-0.3,0-1,0.1-1.7
			c-4.3,9.7-9.3,16.9-13.5,18.7c-6.8,2.8-9.7-2.7-9.6-11.6c0.2-16.7,7.7-46.1,25.4-51.9c3.3-1.1,5.4,1.1,6.5,3.4
			c2.2-9.4,4.7-18.8,7.4-28c0.5-1.7,2.1-2.9,4-3.3c3.1-0.7,7.2,1.1,6.9,4.7C456.2,158.6,441.9,181.9,441,203.8z M438.5,169.1
			c-0.1-1.4-1.3-3.4-3.5-2.4c-10.9,5.3-15.8,30.5-16,43.7c-0.1,3.4,0.9,5.4,2.1,4.7c8.1-4.4,11.3-20.3,13.7-29.7
			C435.8,180.3,437.1,174.7,438.5,169.1z"/>
		<path class="st2" d="M465.6,196.3c-0.1,2.1,0.6,3.3,2.3,2.8c4.6-1.3,11.5-15.4,12.9-18c0.8-1.3,1.5-2,2.1-2.2
			c0.5-0.1,0.9,0.2,0.9,0.9c0,0.5-0.1,1-0.5,1.8c-4,9.8-9.9,22-19.5,25.6c-4.5,1.7-9.3-0.4-9-8.2c0.5-14.3,5.4-30.1,9.8-44.3
			c0.6-1.9,2.6-3.3,5-3.7c3.1-0.6,6.8,0.9,6.5,4.1C474.9,168.2,466.4,183,465.6,196.3z M465.9,141.9c0-4.5,4.4-11.2,11.3-12.1
			c5.1-0.7,7.4,1.6,7.4,4.4c0,4.3-5.1,10.3-13,11.7C467.6,146.6,465.9,144.7,465.9,141.9z"/>
		<path class="st2" d="M491.4,159.5c2.5-6.6,8.8-12.1,16.4-12.4c10-0.4,14.3,6.5,14.2,14.7c-0.2,14.5-11.7,34.9-27.3,38
			c-10,1.9-14.2-4.6-14.2-14.1c0-7.6,2.4-15.5,5.6-21.6C487.3,161.9,489.2,159.9,491.4,159.5z M498.3,161.1c0.3,0.2,0.8,0.9,0.4,1.3
			c-4.3,5.6-7.5,16.2-7.5,23.8c0,5.4,2.6,9.5,5.9,8.4c9.2-3.2,14.1-24.5,14.2-35.1c0-4.9-1.1-8.7-4.1-8.6
			C504.3,151,500.2,155.8,498.3,161.1z"/>
	</g>
</g>
</svg>
